<svg xmlns="http://www.w3.org/2000/svg" width="789.063" height="500.452" viewBox="0 0 789.063 500.452"><g id="Group_42390" data-name="Group 42390" transform="translate(-13.627 -15.201)"><path id="Path_31245" data-name="Path 31245" d="M46.288,504.517S-8.98,461.355,29.557,358.183c22.719-60.825,99.36-51.486,95.483-160.732S191.8,40.583,318.441,90.166c91.39,35.783,228.427-126.123,341.713,77.41,43.693,78.5,120.158,68.328,140.515,211.885,5.565,39.239-2.782,80.321-44.012,125.055Z" transform="translate(0.48 10.022)" fill="#f5fbff"></path><g id="Group_42373" data-name="Group 42373" transform="translate(639.751 222.84)"><path id="Path_31246" data-name="Path 31246" d="M549.27,346.023l10.967-5.944a2.764,2.764,0,0,1,2.88.178q1.624,1.144,3.365,2.17a46.58,46.58,0,0,0,6.606,3.239,2.727,2.727,0,0,1,1.75,2.529l.147,13.035a2.678,2.678,0,0,0,2.5,2.653l11.885.9a2.649,2.649,0,0,0,2.795-2.146l2.19-11.8a2.66,2.66,0,0,1,2.328-2.183,48.232,48.232,0,0,0,14.581-4.276,2.744,2.744,0,0,1,3.263.735l4.642,5.637a2.774,2.774,0,0,0,3.623.552l9.872-6.526a2.445,2.445,0,0,0,.536-.457,2.658,2.658,0,0,0,.356-3.075l-4.43-8.2-1.084-2a47.9,47.9,0,0,0,3.82-5.554,48.448,48.448,0,0,0,3.826-8.14,2.656,2.656,0,0,1,2.483-1.777l10.5-.107a2.756,2.756,0,0,0,2.719-2.554l.687-9.086.19-2.6a2.793,2.793,0,0,0-2.268-2.962l-9.862-1.838a2.653,2.653,0,0,1-2.189-2.236,47.879,47.879,0,0,0-2.613-9.892,8,8,0,0,0-.3-.808,1.491,1.491,0,0,1-.091-.275,2.72,2.72,0,0,1,.9-2.879l9.136-7.558a1.932,1.932,0,0,0,.287-.272,2.769,2.769,0,0,0,.259-3.339l-6.491-9.85a2.752,2.752,0,0,0-3.6-.9l-11.436,6.205a2.661,2.661,0,0,1-3-.3,48.626,48.626,0,0,0-6.076-4.222q-1.724-1.015-3.5-1.867a2.806,2.806,0,0,1-1.582-2.493l-.145-12.529a2.676,2.676,0,0,0-2.473-2.64l-11.759-.87a2.8,2.8,0,0,0-2.968,2.28l-1.735,9.338a2.746,2.746,0,0,1-2.539,2.249,48.037,48.037,0,0,0-14.5,3.042,2.732,2.732,0,0,1-3.105-.815l-6.807-8.238a2.826,2.826,0,0,0-3.714-.558l-9.819,6.462a2.7,2.7,0,0,0-.889,3.551l.254.482,5.152,9.521a2.76,2.76,0,0,1-.342,3.132l-.007.011a47.853,47.853,0,0,0-4.924,6.893c-.78,1.326-1.475,2.669-2.124,4.041a2.708,2.708,0,0,1-2.433,1.585l-10.659.108a2.8,2.8,0,0,0-2.77,2.587l-.873,11.709a3.083,3.083,0,0,0,.1.959,2.791,2.791,0,0,0,2.137,1.951l7.881,1.447a2.785,2.785,0,0,1,2.081,1.777,2.985,2.985,0,0,1,.156.756,47.89,47.89,0,0,0,4.79,18.325,2.68,2.68,0,0,1-.7,3.264l-7.4,6.114a2.742,2.742,0,0,0-.545,3.611l.149.23,6.318,9.607A2.79,2.79,0,0,0,549.27,346.023Zm60.308-62.378a32.1,32.1,0,0,1,3.707,4.677,25.186,25.186,0,0,1,3.443,13.285c-.029.425-.069.843-.11,1.261-2.8,25.422-33.948,33.2-48.331,11.612a26.1,26.1,0,0,1-3.587-11.348,17.037,17.037,0,0,1,0-2.526,29.6,29.6,0,0,1,2.429-9.766A25.84,25.84,0,0,1,609.578,283.645Z" transform="translate(-530.654 -175.47)" fill="#dceaff"></path><path id="Path_31247" data-name="Path 31247" d="M601.334,243.546l5.867-3.18a1.478,1.478,0,0,1,1.54.1q.868.612,1.8,1.16a24.767,24.767,0,0,0,3.535,1.733,1.459,1.459,0,0,1,.935,1.354l.079,6.973a1.435,1.435,0,0,0,1.336,1.421l6.359.48a1.417,1.417,0,0,0,1.494-1.148l1.172-6.314a1.424,1.424,0,0,1,1.245-1.169,25.751,25.751,0,0,0,7.8-2.288,1.468,1.468,0,0,1,1.745.394l2.484,3.015a1.485,1.485,0,0,0,1.939.3l5.281-3.491a1.275,1.275,0,0,0,.287-.245,1.423,1.423,0,0,0,.191-1.645l-2.371-4.385-.58-1.068a25.793,25.793,0,0,0,4.091-7.325,1.421,1.421,0,0,1,1.328-.951l5.618-.058a1.472,1.472,0,0,0,1.453-1.366l.368-4.861.1-1.393a1.5,1.5,0,0,0-1.214-1.585l-5.276-.983a1.419,1.419,0,0,1-1.171-1.2,25.63,25.63,0,0,0-1.4-5.292,4.387,4.387,0,0,0-.16-.432.8.8,0,0,1-.048-.147,1.455,1.455,0,0,1,.483-1.54l4.889-4.044a1.1,1.1,0,0,0,.154-.145,1.483,1.483,0,0,0,.138-1.786l-3.472-5.27a1.474,1.474,0,0,0-1.929-.484L641.311,200a1.423,1.423,0,0,1-1.6-.159,25.941,25.941,0,0,0-3.25-2.259q-.923-.543-1.871-1a1.5,1.5,0,0,1-.845-1.335l-.077-6.7a1.433,1.433,0,0,0-1.324-1.412l-6.291-.465a1.5,1.5,0,0,0-1.588,1.219l-.929,5a1.47,1.47,0,0,1-1.358,1.2,25.749,25.749,0,0,0-7.759,1.628,1.46,1.46,0,0,1-1.66-.436l-3.643-4.407a1.509,1.509,0,0,0-1.986-.3l-5.253,3.457a1.444,1.444,0,0,0-.476,1.9l.137.258,2.755,5.094a1.474,1.474,0,0,1-.183,1.675l0,.007a25.5,25.5,0,0,0-2.634,3.688c-.417.708-.79,1.428-1.136,2.162a1.45,1.45,0,0,1-1.3.848l-5.7.058a1.5,1.5,0,0,0-1.482,1.383l-.466,6.265a1.623,1.623,0,0,0,.053.513,1.491,1.491,0,0,0,1.142,1.044l4.217.774a1.491,1.491,0,0,1,1.114.951,1.634,1.634,0,0,1,.083.4,25.6,25.6,0,0,0,2.561,9.8,1.443,1.443,0,0,1-.2,1.573,1.616,1.616,0,0,1-.178.173l-3.961,3.272a1.467,1.467,0,0,0-.292,1.932l.08.122,3.38,5.141A1.493,1.493,0,0,0,601.334,243.546ZM633.6,210.174a17.2,17.2,0,0,1,1.984,2.5,13.468,13.468,0,0,1,1.842,7.107c-.015.228-.036.452-.059.675-1.5,13.6-18.161,17.759-25.856,6.212a14,14,0,0,1-1.919-6.071,9.131,9.131,0,0,1,0-1.351,15.842,15.842,0,0,1,1.3-5.225A13.822,13.822,0,0,1,633.6,210.174Z" transform="translate(-517.841 -186.66)" fill="#a9c2ff"></path></g><path id="Path_31248" data-name="Path 31248" d="M90.237,301.291l4.111-2.228a1.037,1.037,0,0,1,1.08.067q.609.429,1.262.814a17.392,17.392,0,0,0,2.477,1.213,1.025,1.025,0,0,1,.656.949l.055,4.886a1,1,0,0,0,.936,1l4.457.337a.994.994,0,0,0,1.048-.805l.821-4.425a1,1,0,0,1,.873-.819,18.077,18.077,0,0,0,5.466-1.6,1.03,1.03,0,0,1,1.223.276l1.74,2.113a1.04,1.04,0,0,0,1.359.207l3.7-2.446a.955.955,0,0,0,.2-.172,1,1,0,0,0,.133-1.153l-1.662-3.074-.407-.748a17.722,17.722,0,0,0,1.433-2.082,18.16,18.16,0,0,0,1.435-3.052,1,1,0,0,1,.93-.666l3.937-.04a1.034,1.034,0,0,0,1.02-.958l.258-3.407.071-.976a1.047,1.047,0,0,0-.851-1.111l-3.7-.689a1,1,0,0,1-.821-.839,17.974,17.974,0,0,0-.98-3.708,3.1,3.1,0,0,0-.113-.3.6.6,0,0,1-.034-.1,1.019,1.019,0,0,1,.339-1.079l3.426-2.834a.789.789,0,0,0,.108-.1,1.038,1.038,0,0,0,.1-1.251l-2.434-3.694a1.031,1.031,0,0,0-1.351-.339l-4.287,2.326a1,1,0,0,1-1.125-.111,18.242,18.242,0,0,0-2.278-1.583q-.647-.38-1.31-.7a1.05,1.05,0,0,1-.593-.935l-.055-4.7a1,1,0,0,0-.928-.989l-4.408-.327a1.049,1.049,0,0,0-1.113.855l-.652,3.5a1.031,1.031,0,0,1-.952.843,18.008,18.008,0,0,0-5.436,1.141,1.027,1.027,0,0,1-1.165-.306l-2.552-3.088a1.058,1.058,0,0,0-1.393-.21l-3.681,2.422a1.012,1.012,0,0,0-.333,1.332l.094.18,1.933,3.57a1.034,1.034,0,0,1-.128,1.173l0,0a17.935,17.935,0,0,0-1.846,2.584c-.293.5-.553,1-.8,1.515a1.012,1.012,0,0,1-.912.593l-4,.041a1.051,1.051,0,0,0-1.039.97l-.327,4.39a1.136,1.136,0,0,0,.038.36,1.044,1.044,0,0,0,.8.731l2.955.543a1.043,1.043,0,0,1,.781.666,1.144,1.144,0,0,1,.058.283,17.948,17.948,0,0,0,1.8,6.87,1.013,1.013,0,0,1-.139,1.1,1.078,1.078,0,0,1-.125.121l-2.776,2.292a1.027,1.027,0,0,0-.2,1.354l.056.086,2.369,3.6A1.046,1.046,0,0,0,90.237,301.291ZM112.848,277.9a11.875,11.875,0,0,1,1.39,1.754,9.431,9.431,0,0,1,1.291,4.98c-.011.16-.025.317-.041.473-1.049,9.531-12.728,12.447-18.122,4.354a9.808,9.808,0,0,1-1.344-4.254,6.328,6.328,0,0,1,0-.947,11.1,11.1,0,0,1,.912-3.662A9.686,9.686,0,0,1,112.848,277.9Z" transform="translate(14.693 51.955)" fill="#dceaff"></path><g id="Group_42374" data-name="Group 42374" transform="translate(20.46 15.201)"><path id="Path_31249" data-name="Path 31249" d="M127,202.367l-2.929-8.153a1.921,1.921,0,0,1,.425-1.958q.957-.994,1.843-2.083a32.18,32.18,0,0,0,2.917-4.195,1.892,1.892,0,0,1,1.919-.935l8.965,1.268a1.859,1.859,0,0,0,2.083-1.436l1.864-8.064a1.838,1.838,0,0,0-1.18-2.143l-7.873-2.743a1.847,1.847,0,0,1-1.255-1.827,33.486,33.486,0,0,0-1.4-10.458,1.908,1.908,0,0,1,.848-2.163l4.357-2.6a1.925,1.925,0,0,0,.759-2.429l-3.443-7.461a1.725,1.725,0,0,0-.258-.418,1.847,1.847,0,0,0-2.073-.567l-6.093,2.181-1.485.534a33.153,33.153,0,0,0-3.411-3.206,33.577,33.577,0,0,0-5.186-3.48,1.847,1.847,0,0,1-.959-1.892l1.029-7.219a1.916,1.916,0,0,0-1.468-2.135l-6.166-1.425-1.768-.4a1.938,1.938,0,0,0-2.271,1.247l-2.3,6.577a1.843,1.843,0,0,1-1.766,1.268,33.228,33.228,0,0,0-7.064.756,5.774,5.774,0,0,0-.586.121,1.015,1.015,0,0,1-.2.033A1.889,1.889,0,0,1,91,136.039l-4.229-7.065a1.473,1.473,0,0,0-.157-.226,1.922,1.922,0,0,0-2.265-.528L76.9,131.64a1.914,1.914,0,0,0-1,2.381l3.059,8.5a1.847,1.847,0,0,1-.518,2.028,33.719,33.719,0,0,0-3.535,3.727q-.879,1.077-1.649,2.2a1.948,1.948,0,0,1-1.878.823l-8.616-1.216a1.858,1.858,0,0,0-2.072,1.422l-1.831,7.981a1.943,1.943,0,0,0,1.253,2.277l6.228,2.173a1.906,1.906,0,0,1,1.278,1.979,33.382,33.382,0,0,0,.567,10.275,1.9,1.9,0,0,1-.886,2.045l-6.37,3.809a1.962,1.962,0,0,0-.774,2.491l3.405,7.419a1.875,1.875,0,0,0,2.345.983l.357-.124,7.077-2.538a1.918,1.918,0,0,1,2.113.564l.007.006a33.261,33.261,0,0,0,4.216,4.1c.828.675,1.677,1.293,2.55,1.882a1.88,1.88,0,0,1,.833,1.837L82.015,206a1.945,1.945,0,0,0,1.486,2.173L91.448,210a2.089,2.089,0,0,0,.668.033,1.938,1.938,0,0,0,1.563-1.262l1.821-5.258a1.934,1.934,0,0,1,1.439-1.242,2.055,2.055,0,0,1,.534-.028,33.274,33.274,0,0,0,13.083-1.364,1.872,1.872,0,0,1,1.98.563,2.1,2.1,0,0,1,.188.263l3.42,5.724a1.9,1.9,0,0,0,2.422.753l.173-.077L126,204.781A1.937,1.937,0,0,0,127,202.367Zm-36.49-47.95a22.2,22.2,0,0,1,3.6-2.054,17.487,17.487,0,0,1,9.482-.969c.288.064.572.136.854.208,17.158,4.589,19.225,26.79,2.9,34.4a18.138,18.138,0,0,1-8.167,1.27,11.825,11.825,0,0,1-1.734-.265,20.563,20.563,0,0,1-6.449-2.695A17.944,17.944,0,0,1,90.511,154.417Z" transform="translate(-10.926 8.37)" fill="#dceaff"></path><path id="Path_31250" data-name="Path 31250" d="M69.292,135.777l-1.376-6.657a1.507,1.507,0,0,1,.546-1.475q.854-.667,1.662-1.414a25.334,25.334,0,0,0,2.73-2.937,1.484,1.484,0,0,1,1.595-.515l6.824,1.974a1.46,1.46,0,0,0,1.778-.885l2.337-6.06a1.442,1.442,0,0,0-.679-1.795l-5.814-3a1.45,1.45,0,0,1-.773-1.559,26.258,26.258,0,0,0,.063-8.28,1.494,1.494,0,0,1,.9-1.586l3.671-1.536a1.512,1.512,0,0,0,.859-1.8l-1.852-6.176a1.281,1.281,0,0,0-.154-.352,1.45,1.45,0,0,0-1.549-.67l-4.974,1.022-1.211.251a25.97,25.97,0,0,0-2.3-2.866,26.35,26.35,0,0,0-3.645-3.277,1.45,1.45,0,0,1-.536-1.574l1.6-5.5a1.5,1.5,0,0,0-.9-1.82L63.454,75.5l-1.33-.509a1.521,1.521,0,0,0-1.9.718l-2.512,4.856a1.446,1.446,0,0,1-1.511.791,25.991,25.991,0,0,0-5.571-.193,4.572,4.572,0,0,0-.469.028.763.763,0,0,1-.157,0,1.481,1.481,0,0,1-1.36-.925l-2.506-5.956a1.106,1.106,0,0,0-.1-.193,1.507,1.507,0,0,0-1.7-.66L38.179,75.3A1.5,1.5,0,0,0,37.14,77.04l1.437,6.943a1.449,1.449,0,0,1-.626,1.519,26.459,26.459,0,0,0-3.158,2.506q-.8.739-1.525,1.53a1.527,1.527,0,0,1-1.55.432l-6.56-1.9a1.457,1.457,0,0,0-1.766.876l-2.3,6a1.526,1.526,0,0,0,.723,1.907l4.6,2.375a1.5,1.5,0,0,1,.774,1.678,26.19,26.19,0,0,0-.694,8.045,1.49,1.49,0,0,1-.914,1.492l-5.37,2.255a1.541,1.541,0,0,0-.876,1.85l1.827,6.139a1.47,1.47,0,0,0,1.712,1.023l.291-.057,5.779-1.19a1.5,1.5,0,0,1,1.579.671l0,.006a26.2,26.2,0,0,0,2.822,3.654c.569.615,1.161,1.189,1.774,1.744a1.477,1.477,0,0,1,.444,1.519l-1.622,5.578a1.528,1.528,0,0,0,.914,1.853l5.971,2.3a1.677,1.677,0,0,0,.516.1,1.525,1.525,0,0,0,1.355-.808l1.995-3.885a1.522,1.522,0,0,1,1.255-.807,1.6,1.6,0,0,1,.419.039,26.089,26.089,0,0,0,10.313.384,1.471,1.471,0,0,1,1.476.656,1.518,1.518,0,0,1,.116.225l2.026,4.823a1.494,1.494,0,0,0,1.8.854l.143-.042,6.007-1.784A1.521,1.521,0,0,0,69.292,135.777ZM46.236,94.5a17.462,17.462,0,0,1,3.024-1.2,13.708,13.708,0,0,1,7.473.294c.217.081.429.168.641.256,12.822,5.459,11.978,22.935-1.546,27.043a14.235,14.235,0,0,1-6.485.086,9.129,9.129,0,0,1-1.318-.4,16.1,16.1,0,0,1-4.713-2.8A14.079,14.079,0,0,1,46.236,94.5Z" transform="translate(-19.269 -2.919)" fill="#dceaff"></path><path id="Path_31251" data-name="Path 31251" d="M183.793,134.88l-4.41-12.949a3.032,3.032,0,0,1,.722-3.081q1.537-1.546,2.965-3.241a50.92,50.92,0,0,0,4.717-6.547,2.989,2.989,0,0,1,3.055-1.427l14.122,2.237a2.936,2.936,0,0,0,3.328-2.211l3.153-12.685a2.9,2.9,0,0,0-1.807-3.415L197.28,87.024a2.917,2.917,0,0,1-1.934-2.917,52.867,52.867,0,0,0-1.942-16.55,3.011,3.011,0,0,1,1.394-3.393l6.949-3.983a3.042,3.042,0,0,0,1.263-3.816l-5.241-11.872a2.613,2.613,0,0,0-.4-.665,2.916,2.916,0,0,0-3.259-.951l-9.677,3.283-2.357.805a52.326,52.326,0,0,0-5.3-5.15,53.016,53.016,0,0,0-8.1-5.632,2.917,2.917,0,0,1-1.465-3.011L169.03,21.8a3.022,3.022,0,0,0-2.261-3.409l-9.7-2.414-2.78-.684a3.06,3.06,0,0,0-3.618,1.909l-3.8,10.325a2.91,2.91,0,0,1-2.819,1.957,52.42,52.42,0,0,0-11.175,1.006,9.29,9.29,0,0,0-.928.176,1.622,1.622,0,0,1-.314.047,2.981,2.981,0,0,1-2.946-1.506L122.2,17.939a2.183,2.183,0,0,0-.242-.361,3.034,3.034,0,0,0-3.562-.893l-11.844,5.206a3.019,3.019,0,0,0-1.641,3.731l4.607,13.5a2.919,2.919,0,0,1-.872,3.19,53.248,53.248,0,0,0-5.681,5.792q-1.413,1.677-2.662,3.437A3.075,3.075,0,0,1,97.314,52.8L83.741,50.651a2.934,2.934,0,0,0-3.308,2.19l-3.1,12.552a3.066,3.066,0,0,0,1.919,3.628l9.778,3.593a3.015,3.015,0,0,1,1.964,3.158,52.721,52.721,0,0,0,.624,16.24,3,3,0,0,1-1.452,3.207l-10.158,5.846a3.1,3.1,0,0,0-1.286,3.913l5.182,11.8a2.959,2.959,0,0,0,3.675,1.613l.567-.185,11.242-3.821a3.027,3.027,0,0,1,3.322.946l.011.01a52.476,52.476,0,0,0,6.548,6.59c1.29,1.087,2.615,2.087,3.978,3.04a2.97,2.97,0,0,1,1.267,2.922l-1.843,11.545a3.072,3.072,0,0,0,2.289,3.47l12.5,3.1a3.3,3.3,0,0,0,1.055.069,3.058,3.058,0,0,0,2.5-1.951l3.013-8.255a3.056,3.056,0,0,1,2.3-1.923,3.273,3.273,0,0,1,.845-.03,52.509,52.509,0,0,0,20.693-1.809,2.955,2.955,0,0,1,3.11.942,3,3,0,0,1,.291.42l5.25,9.127a3.007,3.007,0,0,0,3.8,1.255l.276-.12,11.548-5.064A3.06,3.06,0,0,0,183.793,134.88ZM127.437,58.211a35.127,35.127,0,0,1,5.738-3.149,27.615,27.615,0,0,1,15-1.281c.454.11.9.23,1.344.351,26.97,7.7,29.652,42.807,3.671,54.389a28.641,28.641,0,0,1-12.93,1.794,18.647,18.647,0,0,1-2.731-.466,32.456,32.456,0,0,1-10.112-4.423A28.337,28.337,0,0,1,127.437,58.211Z" transform="translate(-7.037 -15.201)" fill="#dceaff"></path></g><path id="Path_31252" data-name="Path 31252" d="M128.044,221.383c3.307-16.777,31.454-13.577,31.454-13.577s20.883,27.494,26.419,27.8-13.264-26.993-13.264-26.993c10.561-1.773,38.573,9.366,38.573,9.366s.637,33.736,6.078,32.667-2.089-29.844-2.089-29.844c10.507,2.368,20.952,13.7,20.952,13.7,13.374,18.713-11.345,34.919-11.345,34.919s.473,11.687,8.614,24.562h0a39.8,39.8,0,0,1,3.744,6.439l-2.806.2q-.421-1.1-.913-2.124a.017.017,0,0,0-.006-.012l-.015-.029c-.223-.42-.543-1.017-.939-1.745l0,0v0c-.975-1.619-1.641-2.818-2.07-3.686l0-.008c-2.937-5.087-7.117-11.691-9.686-12.958a5.481,5.481,0,0,0,.511-1.33c-.163.424-.333.866-.511,1.33-4.082,10.627-27.974,14.022-41.544,12.214s-8-5.99-1.228-12.617,21.981-6.071,26.273-8.783-2.394-4.659-11.265-3.348-12.707,10.541-27.018,12.921-27.185-23.951-27.185-23.951c10.164,2.392,27.617-4.345,28.064-7.824s-25.943-1.286-30.132-2.027S124.737,238.16,128.044,221.383Z" transform="translate(23.975 40.59)" fill="#dceaff"></path><rect id="Rectangle_40308" data-name="Rectangle 40308" width="775.27" height="1.835" rx="0.731" transform="translate(13.627 513.621)" fill="#2d3554"></rect><g id="Group_42382" data-name="Group 42382" transform="translate(99.599 37.183)"><g id="Group_42375" data-name="Group 42375" transform="translate(44.059)"><rect id="Rectangle_40309" data-name="Rectangle 40309" width="536.054" height="393.966" rx="13.179" fill="#007cff"></rect><rect id="Rectangle_40310" data-name="Rectangle 40310" width="536.054" height="393.966" rx="13.431" fill="#fff" stroke="#26529f" stroke-width="6"></rect><path id="Rectangle_40311" data-name="Rectangle 40311" d="M11.827,0h512.4a11.827,11.827,0,0,1,11.827,11.827v12.3a0,0,0,0,1,0,0H0a0,0,0,0,1,0,0v-12.3A11.827,11.827,0,0,1,11.827,0Z" fill="#26529f"></path></g><g id="Group_42376" data-name="Group 42376" transform="translate(264.654 39.592)"><rect id="Rectangle_40312" data-name="Rectangle 40312" width="216.134" height="154.026" transform="translate(0.003 0.001)" fill="#007cff"></rect><rect id="Rectangle_40313" data-name="Rectangle 40313" width="216.149" height="154.035" fill="#dceaff"></rect><rect id="Rectangle_40314" data-name="Rectangle 40314" width="216.134" height="24.125" transform="translate(0.003 0.001)" fill="#699dee"></rect><path id="Path_31253" data-name="Path 31253" d="M303.159,176.971l61.391-36.877,44.78,24.447,68.585-43.3,41.393,30.871v56.317H303.159Z" transform="translate(-303.159 -54.399)" fill="#fff" opacity="0.63"></path><path id="Path_31254" data-name="Path 31254" d="M361.6,119.122a16.145,16.145,0,1,1-16.145-16.146A16.145,16.145,0,0,1,361.6,119.122Z" transform="translate(-297.642 -58.253)" fill="#fff"></path></g><g id="Group_42379" data-name="Group 42379" transform="translate(312.463 246.826)"><rect id="Rectangle_40315" data-name="Rectangle 40315" width="216.134" height="154.026" fill="#007cff"></rect><rect id="Rectangle_40316" data-name="Rectangle 40316" width="216.134" height="154.026" fill="#dceaff"></rect><g id="Group_42377" data-name="Group 42377" transform="translate(18.859 45.465)"><path id="Path_31255" data-name="Path 31255" d="M436.269,274.714l-16.614,50.131h-9.883l-12.39-37.1-12.6,37.1h-9.954l-16.614-50.131h9.669l12.46,38.1,12.961-38.1h8.593l12.676,38.314,12.819-38.314Z" transform="translate(-358.211 -274.714)" fill="#fff"></path></g><rect id="Rectangle_40317" data-name="Rectangle 40317" width="216.134" height="24.125" fill="#699dee"></rect><g id="Group_42378" data-name="Group 42378" transform="translate(18.859 47.779)"><line id="Line_4" data-name="Line 4" x2="90.485" transform="translate(87.93)" fill="#fff" stroke="#fff" stroke-width="1"></line><line id="Line_5" data-name="Line 5" x2="90.485" transform="translate(87.93 11.913)" fill="#fff" stroke="#fff" stroke-width="1"></line><line id="Line_6" data-name="Line 6" x2="90.485" transform="translate(87.93 23.825)" fill="#fff" stroke="#fff" stroke-width="1"></line><line id="Line_7" data-name="Line 7" x2="90.485" transform="translate(87.93 35.738)" fill="#fff" stroke="#fff" stroke-width="1"></line><line id="Line_8" data-name="Line 8" x2="90.485" transform="translate(87.93 47.651)" fill="#fff" stroke="#fff" stroke-width="1"></line><line id="Line_9" data-name="Line 9" x2="178.415" transform="translate(0 59.563)" fill="#fff" stroke="#fff" stroke-width="1"></line><line id="Line_10" data-name="Line 10" x2="178.415" transform="translate(0 71.476)" fill="#fff" stroke="#fff" stroke-width="1"></line><line id="Line_11" data-name="Line 11" x2="178.415" transform="translate(0 83.389)" fill="#fff" stroke="#fff" stroke-width="1"></line></g></g><g id="Group_42381" data-name="Group 42381" transform="translate(0 104.547)"><rect id="Rectangle_40318" data-name="Rectangle 40318" width="216.134" height="154.026" fill="#007cff"></rect><rect id="Rectangle_40319" data-name="Rectangle 40319" width="216.134" height="154.026" fill="#dceaff"></rect><g id="Group_42380" data-name="Group 42380" transform="translate(39.427 40.981)"><path id="Path_31256" data-name="Path 31256" d="M161.713,184.234,128.383,196.7l33.331,12.461v10.05l-44.537-17.294V191.479l44.537-17.292Z" transform="translate(-117.176 -149.163)" fill="#f5fbff"></path><path id="Path_31257" data-name="Path 31257" d="M188.546,153.523h10.82l-31.882,91.009h-10.82Z" transform="translate(-108.844 -153.523)" fill="#f5fbff"></path><path id="Path_31258" data-name="Path 31258" d="M238.377,191.479v10.435L193.84,219.209v-10.05L227.171,196.7,193.84,184.234V174.187Z" transform="translate(-100.999 -149.163)" fill="#f5fbff"></path></g><rect id="Rectangle_40320" data-name="Rectangle 40320" width="216.134" height="24.125" fill="#699dee"></rect></g></g><g id="Group_42386" data-name="Group 42386" transform="translate(525.597 20.801)"><g id="Group_42383" data-name="Group 42383" transform="translate(26.282 145.662)"><path id="Path_31259" data-name="Path 31259" d="M513.611,157.676a22.464,22.464,0,0,1,19.506,9.037c6.1,8.327,1.877,18.146,17.13,25.712s13.062,17.109,10.011,29.076-15.841,26.436-31.094,25.732-41.335-32.107-40.4-42.638,5.471-11.789,1.878-18.75C485.013,174.938,495.456,159.4,513.611,157.676Z" transform="translate(-451.625 -136.413)" fill="#0b3563"></path><path id="Path_31260" data-name="Path 31260" d="M517.422,201.263a.792.792,0,0,0,.109-.176c-1.688-.6-1.835-3.07-.269-13.34l-.81.038-13.617.652s-.318,4.208-.893,8.131c-.114.781-.239,1.549-.373,2.273C491.322,209.041,513.378,213.657,517.422,201.263Z" transform="translate(-449.486 -130.054)" fill="#ffae73"></path><path id="Path_31261" data-name="Path 31261" d="M491.21,429.777h29.418s.7-4.483-.831-7.885c-1.473-3.264-3.764-5.279-3.973-7.778-1.869,1.924-4.169,3.162-8.423,2.59-.521.844-3.363,5.366-5.1,6.616C500.375,424.7,491.8,424.209,491.21,429.777Z" transform="translate(-451.105 -82.289)" fill="#033c7e"></path><path id="Path_31262" data-name="Path 31262" d="M527.313,342.1c-2.741,6.763-4.848,12.911-4.187,18.331a.15.15,0,0,0,0,.028,14.868,14.868,0,0,0,.328,1.769c9.654,38.6-4.03,88.863-4.03,88.863a56.709,56.709,0,0,1-6.233,1.069c-4.637.413-5.313-.966-5.313-.966s-4.6-40.989-19.508-119.344A217.31,217.31,0,0,1,484.6,304.21c-.235-3.013-.46-6.364-.708-10.292-.676-10.559.924-28.332,8.85-33,3.605-2.13,8.513-1.544,15.112,3.651.521.413,1.014.9,1.6,1.319C549.984,295.063,535.691,321.461,527.313,342.1Z" transform="translate(-452.678 -114.859)" fill="#26529f"></path><path id="Path_31263" data-name="Path 31263" d="M518.93,353.017c-.455-1.591-15.036-52.529-15.28-56.4-.53-8.32,18.739,14.657,19.467,38.066C520.376,341.449,518.269,347.6,518.93,353.017Z" transform="translate(-448.482 -107.448)" fill="#1e3865"></path><path id="Path_31264" data-name="Path 31264" d="M606.411,380.586l-12.245-26.749s-4.369,1.224-6.823,4.037c-2.355,2.7-4.06,2.217-9.425-1.505,2.02,3.118,2.292,4.957,3.542,9.062.986.122,6.594,5.55,12.34,7.044C596.092,373.073,601.1,382.365,606.411,380.586Z" transform="translate(-432.808 -95.008)" fill="#033c7e"></path><path id="Path_31265" data-name="Path 31265" d="M495.622,271.59s26.361,91.639,36.02,97.538,57.414,17.631,71.515,20.447a27.229,27.229,0,0,0-.233-7.666,33.87,33.87,0,0,0-1.62-3.932s-25.076-25.086-49.582-28.6c-5.132-.738,2.059-80.868-32.748-84.009C487.177,262.5,495.622,271.59,495.622,271.59Z" transform="translate(-450.388 -113.794)" fill="#26529f"></path><path id="Path_31266" data-name="Path 31266" d="M464.251,153.691s.59-2.938,1.253-5.18c.293-.992-1.752-7.507-3.168-8.309s-5.1,3.586-4.061,6.955c.537,1.731,1.417,7.362,1.417,7.362Z" transform="translate(-458.093 -140.107)" fill="#ffae73"></path><path id="Path_31267" data-name="Path 31267" d="M563.948,157.1c.18.372.431,1.037.654,1.663,0-.171.007-.339.008-.5.012-1.246,4.662-8.024,6.573-8.448s4.61,5.925,2.222,9.435c-1.226,1.8-4.931,8.229-4.931,8.229l-4.1-2.478a5.737,5.737,0,0,0-1.132-3.13c-.558-.706-.58-4.03-.779-5.481C562.461,156.38,563.283,155.723,563.948,157.1Z" transform="translate(-436.07 -138.064)" fill="#ffae73"></path><path id="Path_31268" data-name="Path 31268" d="M502.3,188.43s-.318,4.208-.893,8.131c7.433.893,12.35-5.278,14.509-8.782Z" transform="translate(-448.953 -130.048)" fill="#f9924f"></path><path id="Path_31269" data-name="Path 31269" d="M519.452,191.76s5.2-6.032,7.063-11.575c1.326-3.956,1.5-19.331-13.967-19.414a20.8,20.8,0,0,0-9.01,1.956c-3.617,1.732-9.074,5.819-5.726,19.755l.717,4.647Z" transform="translate(-449.932 -135.748)" fill="#0b3563"></path><path id="Path_31270" data-name="Path 31270" d="M499.8,196.525s18.978,3.144,20.754-8.7,5.42-19.423-6.621-21.931-15.079,1.659-16.634,5.47S494.908,195.4,499.8,196.525Z" transform="translate(-450.075 -134.827)" fill="#ffae73"></path><path id="Path_31271" data-name="Path 31271" d="M502.133,164.7s5.044,14.755,12.733,18,11.473,1.619,11.473,1.619a22.889,22.889,0,0,1-5.414-14.476S507.046,158.666,502.133,164.7Z" transform="translate(-448.8 -135.295)" fill="#0b3563"></path><path id="Path_31272" data-name="Path 31272" d="M506.529,166.031a14.294,14.294,0,0,0-6.6,4.676c-2.039,2.463-2.758,5.886-3.672,9.271,0,0-2.519-10.034,2.686-14.723C504.459,160.281,506.529,166.031,506.529,166.031Z" transform="translate(-450.169 -135.228)" fill="#0b3563"></path><path id="Path_31273" data-name="Path 31273" d="M591.248,167.414s-4.168,34.038-12.959,42.177c-6.1,5.647-27.687,14.756-32.849,23.152-.613,1-1.366,3.843-1.958,8.058-1.745,12.339-2.177,36.436,5.86,60.633q.559,1.68,1.173,3.362a5.687,5.687,0,0,1-3.378,7.365,96.805,96.805,0,0,1-15.9,4.157c-1.249.219-2.541.412-3.853.576-18.108,2.3-30.361-1.947-36.589-5.091a8.292,8.292,0,0,1-4.536-7.862c.374-6.719,3.736-13.362,5.251-29.512,1.148-12.254-7.214-29.535-6.766-36.057.176-2.577,1.451-14.026.154-15.8-8.614-11.827-23.1-23.157-25.323-33.958-2.567-12.452-.907-37.3-.907-37.3a14.226,14.226,0,0,1,4.018-1.014,5.928,5.928,0,0,1,4.163,2.246s6.463,24.2,6.789,25.831c1.717,8.683,18.231,21.262,23.231,23.787,5.476,2.77,9.853,4.253,13.3,4.574,0,0-4.073,7.034,1.952,8.011,7.253,1.173,12.851-7.163,12.851-7.163s4.4,1.239,12.339.07c6.581-.966,30.005-8.886,33.388-14.9,2.467-4.371,15.473-28.611,15.473-28.611a3.39,3.39,0,0,1,3.149.309A3.555,3.555,0,0,1,591.248,167.414Z" transform="translate(-458.083 -137.955)" fill="#a9c2ff"></path><path id="Path_31274" data-name="Path 31274" d="M536.491,285.67s-16.29-2.793-17.372-14.388c-1.152-12.355,11.5-46.271,11.5-46.271l.011.027C528.886,237.377,528.453,261.473,536.491,285.67Z" transform="translate(-445.231 -122.191)" fill="#8eaff1"></path></g><g id="Group_42385" data-name="Group 42385"><path id="Path_31275" data-name="Path 31275" d="M514.23,43.673l-1.7-6.227a16.974,16.974,0,0,0-14.384-12.391l-44.273-5.23-3.318,28.093L436.39,167.852l183.142,21.632L633.7,69.55,530.06,57.309A18.681,18.681,0,0,1,514.23,43.673Z" transform="translate(-436.39 -19.825)" fill="#ff912b"></path><g id="Group_42384" data-name="Group 42384" transform="translate(34.476 62.471)"><path id="Path_31276" data-name="Path 31276" d="M464.859,100.8l1.261-10.671,39.361-11.972-1.289,10.9-27.4,7.662,24.866,13.835-1.307,11.058Z" transform="translate(-464.859 -69.988)" fill="#fff"></path><path id="Path_31277" data-name="Path 31277" d="M539.206,71.411l9.974,1.178-42.712,67.556-9.974-1.178Z" transform="translate(-458.184 -71.411)" fill="#fff"></path><path id="Path_31278" data-name="Path 31278" d="M578.586,104.141l-1.261,10.67-39.36,11.972,1.287-10.9,27.405-7.661L541.792,94.385,543.1,83.327Z" transform="translate(-449.433 -68.897)" fill="#fff"></path></g></g><path id="Path_31279" data-name="Path 31279" d="M563.033,160.1s-.539-4.716-1.009-5.6.7-1.135,1.7.88,2.992,1.407,3.989,3.4.117,2.523-1.114,2.405A17.659,17.659,0,0,1,563.033,160.1Z" transform="translate(-409.902 8.454)" fill="#ffae73"></path><path id="Path_31280" data-name="Path 31280" d="M463.634,151.713s2.685-2.9,2.673-4.2,1.877-4.517,1.349-5.1-1.464.352-1.964,1.233-2.553.826-3.021,3.229A7.941,7.941,0,0,0,463.634,151.713Z" transform="translate(-430.865 6.002)" fill="#ffae73"></path></g><g id="Group_42389" data-name="Group 42389" transform="translate(67.362 210.029)"><path id="Path_31281" data-name="Path 31281" d="M67.005,447.727H61.16L82.944,334.534l4.86.924Z" transform="translate(-57.332 -142.646)" fill="#1e3865"></path><path id="Path_31282" data-name="Path 31282" d="M202.74,447.218l4.859-.924-21-111.76-4.86.924Z" transform="translate(-31.888 -142.646)" fill="#1e3865"></path><path id="Path_31283" data-name="Path 31283" d="M155.377,447.727h-5.846l21.784-113.193,4.86.924Z" transform="translate(-38.685 -142.646)" fill="#1e3865"></path><path id="Path_31284" data-name="Path 31284" d="M113.626,447.638l4.746.057L97.487,334.954l-4.86.924Z" transform="translate(-50.692 -142.558)" fill="#1e3865"></path><path id="Path_31285" data-name="Path 31285" d="M142.135,208.737c-19.244,2.068-44.147,4.249-69.15,46.821C45.661,302.088,60.044,371.589,81.611,390.9s92.006,43.162,151.219,7.461c0,0,35.754-21.636,17.4-57.542-28.237-55.257-24.247-66.779-36.873-88.434S182.985,204.348,142.135,208.737Z" transform="translate(-57.999 -169.293)" fill="#b3d6ff"></path><path id="Path_31286" data-name="Path 31286" d="M72.985,254.9c17.066-29.057,34.084-39.295,49.288-43.526A127.741,127.741,0,0,0,104.462,235.5c-27.325,46.528-12.941,116.029,8.626,135.344,19.127,17.127,76.686,37.814,130.768,17.379A55.032,55.032,0,0,1,232.83,397.7c-59.212,35.7-129.651,11.853-151.219-7.461S45.661,301.428,72.985,254.9Z" transform="translate(-57.999 -168.634)" fill="#9cc6ef"></path><g id="Group_42388" data-name="Group 42388" transform="translate(49.836)"><path id="Path_31287" data-name="Path 31287" d="M180.258,267.052l4.946,14.889-15.074-5.949Z" transform="translate(-84.175 -156.886)" fill="#f79c8d"></path><path id="Path_31288" data-name="Path 31288" d="M167.338,230.464c1,.041,3.758.963,7.786,8.573,5.142,9.718,12.659,39.077,12.659,39.077l-22.435,8.356-2.882-6.129-4.747-47.176S167.06,230.452,167.338,230.464Z" transform="translate(-86.794 -164.606)" fill="#fc7600"></path><path id="Path_31289" data-name="Path 31289" d="M148.106,226.969c6.415.008,22.289,1.881,29.656,4.234,0,0,5.412,46.518-4.873,81.867-2.3,7.913,1.9,32.8,1.9,32.8l-66.477-.877s7.875-60.168,4.908-69.887-3.037-43.589-3.037-43.589.455-.071,14.937-2.575A150.406,150.406,0,0,1,148.106,226.969Z" transform="translate(-97.218 -165.344)" fill="#ff912b"></path><path id="Path_31290" data-name="Path 31290" d="M138.068,396.448s1.471,16.974,4.174,21.675-.142,12.691-.285,13.789-5.692,2.663-14.515,1.723-8.682-2.977-7.971-6.267,5.408-7.522,5.693-10.654-2.7-14.415-2.7-14.415Z" transform="translate(-94.927 -129.582)" fill="#ffae73"></path><path id="Path_31291" data-name="Path 31291" d="M167.491,313.764s45.889-2.548,56.136,3.658-1.853,18.95-1.853,18.95-37.36,16.243-99.9,19.852c-14.811.855-16.087-38.618-13.317-41.884S167.491,313.764,167.491,313.764Z" transform="translate(-97.416 -147.249)" fill="#1e3865"></path><path id="Path_31292" data-name="Path 31292" d="M126.436,431c-9.086-.968-7.962-5.431-7.23-8.82.459-2.122,3.065-4.622,4.619-6.989.813.648,2.134,1.79,6.079,2.955,4.1,1.21,9.714-1.184,13.293-2.685a43.922,43.922,0,0,1,1.215,11.72C144.266,428.309,135.521,431.965,126.436,431Z" transform="translate(-95.021 -125.627)" fill="#184655"></path><path id="Path_31293" data-name="Path 31293" d="M135.293,346.514c1.833,13.873,10.911,82.938,10.911,82.938l-21.063,2.612s-25.9-90.146-24.573-103.935,11.023-14.947,11.023-14.947S130.441,309.789,135.293,346.514Z" transform="translate(-98.863 -147.169)" fill="#26529f"></path><path id="Path_31294" data-name="Path 31294" d="M111.07,235.006c6.215-2.332,9.256,53.671,10.094,76.722,11.007,1.058,30.192.009,34.969-.351,2.246-.168,7.427-2.066,9.661-2.358a22.338,22.338,0,0,1,5.491-.26c.413.071,11.886,4.763,12.868,5.792,1.217,1.276,4.507,4.494,3.952,5.887s-6.329-3.879-6.329-3.879l-2.82-1.583c3.512,3.432,10.211,7.95,9.246,9.6-.941,1.6-6.984-2.982-11.291-6.107,3.695,3.338,8.283,9.308,7.226,10.239-.951.837-6.17-6.077-11.75-8.067-2.067-.737-4.127,1.305-5.754,1.551a11.68,11.68,0,0,1-4.214.235l-6.04-1.712c-2.058.185-2.11,1.4-4.188,1.846-2.412.513-6.37,1.054-9.442,1.8-17.692,4.322-23.592,6.33-29.009,6.326C97.331,330.678,96.381,240.516,111.07,235.006Z" transform="translate(-98.824 -163.663)" fill="#ffae73"></path><path id="Path_31295" data-name="Path 31295" d="M99.6,288.494c-1.164-23.611-.993-52.713,12.242-57.678,5.223-1.959,14.429,9.82,12.774,58.159C117.551,289.557,107.177,290.027,99.6,288.494Z" transform="translate(-99.152 -164.574)" fill="#fc7600"></path><path id="Path_31296" data-name="Path 31296" d="M164.44,270.032h-1.349l-20.282,49.844,1.4-.213Z" transform="translate(-89.94 -156.257)" fill="#f79c8d"></path><path id="Path_31297" data-name="Path 31297" d="M188.512,408.437s-1.837,5.893,1.453,9.79,16.965,7.72,18.761,9.83a5.913,5.913,0,0,1,1.658,3.909l-38.379-1.057.418-11.591,1.768-8.331Z" transform="translate(-83.779 -127.052)" fill="#ffae73"></path><path id="Path_31298" data-name="Path 31298" d="M192.727,418.279s-9.861,3.99-14.625,1.628-4.62-3.017-6-2.135-1.872,11.747-1.872,11.747l43.158,1.268c3-.069,4.522-2.28,2.082-4.174a35.1,35.1,0,0,0-4.706-2.8C207.39,421.878,192.727,418.279,192.727,418.279Z" transform="translate(-84.154 -125.162)" fill="#184655"></path><path id="Path_31299" data-name="Path 31299" d="M186.929,324.477c2.966-6.243,9.712-14.37,21.584-9.475,11.322,4.668,14.36,16.144,10.788,27.893s-27.088,80.822-27.908,90.32l-18.777.124s3.413-54.692,4.251-67.912C177.672,352.706,181.8,335.282,186.929,324.477Z" transform="translate(-83.65 -147.084)" fill="#26529f"></path><path id="Path_31300" data-name="Path 31300" d="M230.9,270.032H168.139a4.092,4.092,0,0,0-3.787,2.549l-19.325,47.295h-34.6a1.753,1.753,0,0,0-1.751,1.757h0a1.754,1.754,0,0,0,1.751,1.756h98.483a6.876,6.876,0,0,0,6.272-4.073l19.458-43.5A4.106,4.106,0,0,0,230.9,270.032Z" transform="translate(-97.143 -156.257)"></path><path id="Path_31301" data-name="Path 31301" d="M182.886,293.572a3.456,3.456,0,1,1-2.589-4.521A3.694,3.694,0,0,1,182.886,293.572Z" transform="translate(-82.919 -152.256)" fill="#fff"></path><g id="Group_42387" data-name="Group 42387" transform="translate(30.868)"><path id="Path_31302" data-name="Path 31302" d="M159.577,180.891a47.855,47.855,0,0,1-5.552-2.223,27.844,27.844,0,0,0-6.331-2.384c-3.5-.541-9.521-.18-12.844,3.424-4.14,4.492-11.5.811-10.014,24.333,1.677,26.624,16.481,23.7,16.84,23.251s13.2-17.033,13.2-17.033,4.49,9.824,4.49,9.463S182.3,188.543,159.577,180.891Z" transform="translate(-124.642 -176.081)" fill="#0e2e35"></path><path id="Path_31303" data-name="Path 31303" d="M146.858,222.6l1.279,9.512s2.863,13.706-.821,16.349-15.662-16.739-15.662-16.739l1.266-24.106Z" transform="translate(-123.162 -169.427)" fill="#ffae73"></path><path id="Path_31304" data-name="Path 31304" d="M132.362,215.431c3.042,8.223,10.288,13.276,15.431,15.237l-1.084-8.065L132.77,207.619Z" transform="translate(-123.013 -169.427)" fill="#f9924f"></path><path id="Path_31305" data-name="Path 31305" d="M146.388,185.986A12.684,12.684,0,0,1,161,198.814a96.518,96.518,0,0,1-1.068,12.2c-1.7,10.983-9.19,20.653-14.143,19.789s-17.42-10.337-15.225-25.964C131.915,195.192,138.2,187.309,146.388,185.986Z" transform="translate(-123.447 -174.025)" fill="#ffae73"></path><path id="Path_31306" data-name="Path 31306" d="M134.609,203.946c-.418,2.415-2.352,4.094-4.32,3.75s-3.225-2.578-2.807-4.993,2.353-4.094,4.321-3.752S135.028,201.53,134.609,203.946Z" transform="translate(-124.059 -171.265)" fill="#ffae73"></path><path id="Path_31307" data-name="Path 31307" d="M131.366,202.347s5.99,1.488,8.213-2.364,10.171-12.167,20.276-8.719-8.892-8.381-9.7-8.381-10.509-.068-10.509-.068-7.477,6.151-7.746,6.826-2.426,8.044-2.426,8.044Z" transform="translate(-123.622 -174.66)" fill="#0e2e35"></path></g></g></g></g></svg>