<svg width="455" height="400" viewBox="0 0 455 400" fill="none" xmlns="http://www.w3.org/2000/svg">
<g filter="url(#filter0_d_3337_1235)">
<path opacity="0.5" d="M264.369 244.03C262.546 243.757 260.819 243.209 259.38 242.388C255.091 239.911 255.091 235.915 259.38 233.438C263.67 230.962 270.618 230.962 274.908 233.438C276.333 234.26 277.278 235.258 277.758 236.312L307.415 219.207L244.305 182.819C239.002 179.768 230.409 179.768 225.105 182.819L161.995 219.207L191.063 235.956C189.939 236.257 188.884 236.668 187.952 237.202C183.662 239.679 183.662 243.674 187.952 246.151C192.241 248.628 199.19 248.628 203.479 246.151C204.411 245.618 205.124 245.002 205.645 244.359L234.712 261.109L264.369 244.03Z" fill="#173D7A"/>
<path d="M303.043 170.562L246.32 137.856C239.892 134.148 229.491 134.148 223.063 137.856L163.571 172.163L146.633 165.252V181.934L174.193 197.821V208.906C174.083 210.945 175.357 213.011 178.071 214.571C183.265 217.568 191.68 217.568 196.874 214.571C197.997 213.928 198.861 213.189 199.505 212.395L234.712 232.69L270.645 211.971V197.151C275.058 196.494 279.951 197.151 283.404 199.135C285.131 200.134 286.282 201.338 286.858 202.611L322.791 181.893V165.211L303.043 170.562Z" fill="#D3008D"/>
<path d="M267.275 196.589L266.699 197.382L267.028 197.396L234.712 216.034L199.505 195.74C198.861 196.52 197.998 197.259 196.874 197.916C191.68 200.913 183.265 200.913 178.071 197.916C175.975 196.698 174.727 195.193 174.33 193.619C173.741 195.932 174.974 198.381 178.071 200.16C183.265 203.157 191.68 203.157 196.874 200.16C197.998 199.517 198.861 198.778 199.505 197.984L234.712 218.279L270.646 197.56V195.33L267.275 196.589Z" fill="white"/>
<path d="M270.632 195.312C268.426 194.984 266.329 194.327 264.588 193.328C259.394 190.331 259.394 185.487 264.588 182.49C269.782 179.493 278.197 179.493 283.391 182.49C285.118 183.489 286.269 184.693 286.845 185.966L322.778 165.247L246.334 121.183C239.906 117.475 229.505 117.475 223.077 121.183L146.633 165.247L181.84 185.541C180.483 185.911 179.195 186.403 178.071 187.06C172.877 190.057 172.877 194.902 178.071 197.898C183.265 200.895 191.68 200.895 196.874 197.898C197.998 197.255 198.861 196.516 199.505 195.723L234.712 216.017L270.632 195.312Z" fill="#FF2C9C"/>
<path d="M181.827 185.546L146.62 165.251V167.482L179.429 186.394C180.196 186.066 180.991 185.778 181.827 185.546Z" fill="white"/>
<path d="M286.844 185.97C286.269 184.698 285.131 183.493 283.391 182.494C278.197 179.497 269.782 179.497 264.588 182.494C261.491 184.273 260.258 186.723 260.847 189.036C261.244 187.462 262.478 185.943 264.588 184.739C269.782 181.742 278.197 181.742 283.391 184.739C285.118 185.738 286.269 186.942 286.844 188.215L322.778 167.496V165.266L286.844 185.97Z" fill="white"/>
<path d="M411.529 237.885L343.089 198.433L307.155 219.151C306.579 217.878 305.442 216.674 303.702 215.675C301.893 214.635 299.672 213.951 297.343 213.636C296.191 212.131 292.313 207.519 291.929 207.41C291.477 207.286 281.007 204.262 281.007 204.262V221.012C280.966 223.01 282.254 225.008 284.899 226.527C286.626 227.526 288.722 228.183 290.943 228.511L272.866 238.939L255.009 232.548V249.229L291.998 270.55C292.19 268.757 293.464 266.992 295.849 265.624C298.658 264.009 302.413 263.27 306.1 263.407V278.692L343.089 300.013L419.533 255.949C422.822 254.06 424.412 251.556 424.329 249.079H424.343V232.726L411.529 237.885Z" fill="#396CAA"/>
<path d="M292.014 240.882V270.522C292.219 268.73 293.494 266.964 295.865 265.596C301.059 262.599 309.473 262.599 314.667 265.596C315.777 266.239 316.641 266.964 317.285 267.744C320.053 266.882 322.959 266.39 325.919 266.239V240.882H292.014Z" fill="#173D7A"/>
<path d="M343.088 198.433L342.828 198.583V299.821L343.088 299.971L419.532 255.907C422.821 254.019 424.411 251.515 424.329 249.038H424.343V232.685L411.529 237.871L343.088 198.433Z" fill="#173D7A"/>
<path d="M306.102 266.803V261.986L310.295 264.395L306.102 266.803Z" fill="#396CAA"/>
<path d="M424.222 233.644C423.797 235.683 422.248 237.667 419.535 239.227L343.09 283.291L310.857 264.707C310.816 264.201 310.679 263.175 310.679 263.175L306.115 261.97V264.201L343.104 285.521L419.548 241.457C423.249 239.336 424.797 236.435 424.222 233.644Z" fill="white"/>
<path d="M419.533 225.832L343.088 181.768L307.155 202.486C306.579 201.213 305.442 200.009 303.701 199.01C298.507 196.013 290.093 196.013 284.899 199.01C279.705 202.007 279.705 206.851 284.899 209.848C286.626 210.847 288.722 211.504 290.942 211.832L255.009 232.551L291.998 253.871C292.19 252.078 293.464 250.313 295.849 248.945C301.043 245.948 309.457 245.948 314.651 248.945C319.845 251.942 319.845 256.786 314.651 259.783C312.267 261.151 309.211 261.89 306.1 262L343.088 283.32L419.533 239.256C425.96 235.534 425.96 229.526 419.533 225.832Z" fill="#D4ECFF"/>
<path d="M284.913 212.066C285.899 212.627 286.996 213.079 288.161 213.421L290.943 211.82C288.736 211.491 286.64 210.834 284.899 209.836C282.802 208.618 281.569 207.112 281.158 205.539C280.582 207.838 281.815 210.287 284.913 212.066Z" fill="white"/>
<path d="M318.406 255.459C318.995 253.146 317.762 250.696 314.665 248.917C309.471 245.921 301.056 245.921 295.862 248.917C293.477 250.286 292.203 252.051 292.011 253.844L255.022 232.523V234.754L292.011 256.074C292.203 254.282 293.477 252.516 295.862 251.148C301.056 248.151 309.471 248.151 314.665 251.148C316.761 252.366 317.995 253.885 318.406 255.459Z" fill="white"/>
<path d="M214.032 249.202V232.521L196.477 239.076L178.825 228.894C178.181 229.674 177.318 230.413 176.194 231.07C171 234.067 162.585 234.067 157.391 231.07C152.321 228.142 152.211 223.448 157.062 220.451L161.16 222.736V202.045H148.456L147.195 210.667L125.967 198.433L58.3482 237.42L44.7122 232.534V249.216C44.7122 251.638 46.3156 254.074 49.5225 255.921L125.967 299.985L161.845 279.308C162.435 280.553 163.558 281.73 165.258 282.715C170.452 285.712 178.866 285.712 184.061 282.715C186.76 281.155 188.035 279.103 187.939 277.064V264.269L214.032 249.202Z" fill="#173D7A"/>
<path d="M125.967 198.433L58.3482 237.42L44.7122 232.534V249.216C44.7122 251.638 46.3156 254.074 49.5225 255.921L125.967 299.985V198.433Z" fill="#396CAA"/>
<path d="M158.146 202.127L157.708 203.249L157.817 203.345C157.68 203.413 157.543 203.482 157.42 203.55C154.322 205.329 153.089 207.779 153.678 210.091C154.076 208.518 155.309 206.999 157.42 205.794C158.544 205.151 159.818 204.645 161.188 204.276V202.045L158.146 202.127Z" fill="white"/>
<path d="M184.062 255.185C182.363 254.213 180.321 253.556 178.156 253.214L214.034 232.537L178.827 212.243C178.183 213.023 177.32 213.762 176.196 214.419C171.002 217.416 162.587 217.416 157.393 214.419C152.199 211.422 152.199 206.578 157.393 203.581C158.517 202.937 159.791 202.431 161.162 202.062L125.955 181.768L49.5105 225.832C43.0831 229.54 43.0831 235.534 49.5105 239.242L125.955 283.306L161.833 262.629C162.423 263.874 163.546 265.051 165.246 266.037C170.44 269.034 178.855 269.034 184.049 266.037C189.256 263.026 189.256 258.182 184.062 255.185Z" fill="#5793CE"/>
<path d="M184.06 266.022C178.866 269.019 170.452 269.019 165.258 266.022C163.558 265.05 162.434 263.86 161.845 262.615L125.966 283.292L49.5222 239.228C46.8087 237.668 45.2464 235.684 44.8352 233.645C44.2596 236.422 45.822 239.324 49.5222 241.472L125.966 285.536L161.845 264.859C162.434 266.104 163.558 267.281 165.258 268.266C170.452 271.263 178.866 271.263 184.06 268.266C187.157 266.487 188.391 264.038 187.802 261.725C187.404 263.299 186.157 264.804 184.06 266.022Z" fill="white"/>
<path d="M178.168 253.214C179.114 253.364 180.046 253.583 180.937 253.857L214.047 234.767V232.537L178.168 253.214Z" fill="white"/>
<path d="M305.593 306.927L285.79 295.514C288.901 295.405 291.971 294.666 294.342 293.298C296.521 292.039 297.768 290.465 298.124 288.836L298.234 288.919V287.92C298.234 287.892 298.234 287.878 298.234 287.851V271.129L281.487 277.629L285.338 280.229C281.802 280.174 278.239 280.913 275.539 282.459C273.154 283.828 271.88 285.593 271.688 287.386L234.699 266.065L212.964 278.6L210.703 271.074L198.821 270.075V288.617L202.452 287.701C203.247 287.988 204.015 288.33 204.714 288.727C209.908 291.724 209.908 296.568 204.714 299.565C199.52 302.562 191.105 302.562 185.911 299.565C184.212 298.593 183.088 297.403 182.499 296.158L162.641 307.612L146.62 300.167V316.849L223.064 360.913C229.492 364.621 239.893 364.621 246.321 360.913L322.765 316.849V300.167L305.593 306.927Z" fill="#D3008D"/>
<path d="M204.727 272.03C203.919 271.565 203 271.195 202.055 270.867L201.726 270.237L198.821 270.06V272.29C200.986 272.632 203.028 273.275 204.727 274.261C206.824 275.479 208.057 276.984 208.469 278.558C209.058 276.259 207.811 273.809 204.727 272.03Z" fill="white"/>
<path d="M285.789 278.829C288.9 278.72 291.97 277.981 294.341 276.613C299.535 273.616 299.535 268.771 294.341 265.774C289.147 262.778 280.732 262.778 275.538 265.774C273.154 267.143 271.879 268.908 271.687 270.701L234.699 249.38L198.82 270.058C200.985 270.4 203.027 271.043 204.727 272.028C209.921 275.025 209.921 279.869 204.727 282.866C199.533 285.863 191.118 285.863 185.924 282.866C184.225 281.895 183.101 280.704 182.511 279.459L146.633 300.136L223.077 344.2C229.505 347.909 239.906 347.909 246.334 344.2L322.778 300.136L285.789 278.829Z" fill="#FF2C9C"/>
<path d="M298.084 272.303C297.687 273.877 296.453 275.396 294.343 276.6C291.958 277.969 288.902 278.708 285.791 278.817L289.053 280.692C290.985 280.336 292.821 279.72 294.356 278.831C297.44 277.065 298.673 274.63 298.084 272.303Z" fill="white"/>
<path d="M246.334 344.227C239.906 347.935 229.504 347.935 223.077 344.227L146.633 300.163V302.393L223.077 346.457C229.504 350.166 239.906 350.166 246.334 346.457L322.778 302.393V300.163L246.334 344.227Z" fill="white"/>
<path d="M126.461 257.033C145.921 257.033 161.696 247.94 161.696 236.725C161.696 225.509 145.921 216.417 126.461 216.417C107.002 216.417 91.2268 225.509 91.2268 236.725C91.2268 247.94 107.002 257.033 126.461 257.033Z" fill="#396CAA"/>
<path d="M109.589 28.7979C109.589 28.7979 110.357 44.5898 111.563 55.1952C112.769 65.8007 138.355 47.0393 138.355 47.0393V34.9559L109.589 28.7979Z" fill="#FF2C9C"/>
<path d="M123.225 225.256C123.608 226.214 130.241 234.274 136.875 236.3C139.752 237.176 141.699 237.285 142.973 237.134C144.248 236.984 145.042 235.67 144.604 234.466C143.466 231.264 140.191 224.572 131.886 220.467C120.635 214.897 123.225 225.256 123.225 225.256Z" fill="#173D7A"/>
<path d="M121.02 228.349C121.02 228.349 123.515 234.206 124.282 239.091C124.748 242.074 123.104 245.961 121.76 248.52C120.924 250.121 118.8 250.476 117.457 249.259C115.292 247.302 112.537 243.881 112.071 238.981C111.304 230.73 112.071 229.293 112.071 229.293L121.02 228.349Z" fill="#173D7A"/>
<path d="M105.041 128.603C105.041 128.603 104.178 139.017 105.041 150.526C105.905 162.048 109.002 215.897 109.577 228.856C109.577 228.856 109.29 232.783 116.896 231.921C124.502 231.059 123.885 226.707 123.885 226.707C123.885 226.707 134.561 226.557 134.904 220.276C135.246 213.994 145.84 145.216 145.84 120.488L105.041 128.603Z" fill="#D4ECFF"/>
<path d="M149.8 74.769L155.035 82.8566L173.016 104.546C173.016 104.546 172.399 106.558 170.165 107.092C168.411 107.502 153.281 93.0926 146.758 86.7703C145.017 85.0871 144.729 82.4187 146.072 80.4071L149.8 74.769Z" fill="#FFC2B0"/>
<path d="M139.588 41.5554C139.588 41.5554 147.907 41.3365 150.798 53.3378C153.69 65.3391 155.951 80.351 153.443 81.5962C145.892 85.3458 141.109 80.9531 141.109 80.9531L139.588 41.5554Z" fill="#2A6CBF"/>
<path d="M142.07 42.0612C140.658 41.4728 139.055 41.3907 137.588 41.8149C130.503 43.8402 103.875 51.6541 99.4894 55.3899C94.4187 59.7142 107.095 84.0316 106.904 92.0096C106.725 99.9877 105.821 109.375 105.122 118.051C104.423 126.714 103.464 131.476 110.563 135.157C117.662 138.838 129.777 139.016 138.863 132.105C147.935 125.208 146.291 120.473 145.907 115.465C145.523 110.456 142.44 88.7801 142.714 82.6221C142.714 82.6221 145.907 80.2683 148.278 76.2314C150.649 72.1945 146.469 64.7912 144.728 59.9606C142.988 55.1436 145.701 49.6288 145.167 45.7013C144.893 43.6897 143.591 42.6907 142.07 42.0612Z" fill="#5DA2FA"/>
<path d="M121.72 58.4408L124.749 61.903C125.146 62.3546 125.325 62.9567 125.229 63.5451L122.597 81.9918C122.529 82.5118 122.652 83.0318 122.954 83.456L129.422 92.4057C129.71 92.8025 130.327 92.7067 130.491 92.2552L134.452 80.8697C134.603 80.4454 134.603 79.9665 134.452 79.5423L128.477 62.5598C128.34 62.1903 128.326 61.7935 128.422 61.4103L129.477 56.9766L121.72 58.4408Z" fill="white"/>
<path d="M133.561 50.3528C134.123 54.7318 130.094 58.8508 124.571 59.5624C119.048 60.274 114.114 57.2908 113.552 52.9118C112.99 48.5327 117.02 44.4137 122.543 43.7021C128.065 42.9905 132.999 45.9737 133.561 50.3528Z" fill="white"/>
<path d="M130.708 50.7096C131.105 53.8433 128.228 56.7855 124.281 57.2918C120.334 57.7981 116.812 55.6634 116.4 52.5433C116.003 49.4095 118.881 46.4674 122.828 45.961C126.775 45.4547 130.311 47.5895 130.708 50.7096Z" fill="#FFC2B0"/>
<path d="M126.791 40.4337C126.791 40.4337 121.98 36.4925 121.035 38.4905C120.089 40.4884 119.308 49.0686 119.308 49.0686L128.86 51.6276L127.407 42.9379C127.407 42.9379 129.326 41.3232 126.791 40.4337Z" fill="#FFC2B0"/>
<path d="M141.116 34.3293C143.4 26.8073 139.144 18.861 131.611 16.5808C124.078 14.3006 116.12 18.5499 113.836 26.072C111.553 33.5941 115.808 41.5404 123.342 43.8206C130.875 46.1008 138.833 41.8514 141.116 34.3293Z" fill="#FFC2B0"/>
<path d="M120.363 40.98C120.28 41.4316 120.198 41.9106 120.116 42.4032C121.075 47.357 128.489 49.5191 128.489 49.5191L127.393 42.9369C127.393 42.9369 128.298 42.1706 128.037 41.4179C125.118 40.4874 121.432 39.6663 120.363 40.98Z" fill="#EA9C92"/>
<path d="M141.116 34.3293C143.4 26.8073 139.144 18.861 131.611 16.5808C124.078 14.3006 116.12 18.5499 113.836 26.072C111.553 33.5941 115.808 41.5404 123.342 43.8206C130.875 46.1008 138.833 41.8514 141.116 34.3293Z" fill="#FFC2B0"/>
<path d="M92.3647 90.438L93.9545 128.522L99.5322 129.097L103.164 94.817L92.3647 90.438Z" fill="#FFC2B0"/>
<path d="M110.685 87.2452C110.384 85.9178 107.944 84.8231 107.574 83.0988C105.656 74.2313 105.19 61.1489 105.19 61.1489L103.627 79.0209C105.423 84.3168 106.971 89.1884 106.903 92.0074C106.793 96.6875 106.437 101.86 106.026 107.088V107.101C106.026 107.101 112.522 95.3875 110.685 87.2452Z" fill="#396CAA"/>
<path d="M100.56 54.6094C100.56 54.6094 96.1055 56.3062 93.5839 69.9907C91.0622 83.6615 89.171 97.3597 93.6661 99.125C98.1612 100.89 101.93 102.218 103.246 98.5639C104.575 94.9102 105.384 77.2846 105.548 70.9486C105.712 64.599 105.959 55.8683 100.56 54.6094Z" fill="#2A6CBF"/>
<path d="M171.687 102.974C171.687 102.974 174.099 103.863 175.853 105.752C177.278 107.312 178.073 108.626 178.69 109.556C180.074 111.622 181.253 116.097 180.403 116.658C179.553 117.219 174.715 109.173 173.934 111.048C173.153 112.923 173.934 114.647 172.934 114.674C171.933 114.702 168.452 106.587 165.712 104.069C162.971 101.564 171.687 102.974 171.687 102.974Z" fill="#FFC2B0"/>
<path d="M123.885 226.694C123.885 226.694 125.215 226.68 126.942 226.379L129.038 142.658L123.885 226.694Z" fill="#396CAA"/>
<path d="M115.827 181.482L112.867 177.609L81.6619 159.573C80.6614 158.998 79.8529 157.452 79.8529 156.111L79.8803 130.603L78.085 128.263L79.7706 127.291C80.0995 127.086 80.5244 127.086 80.9903 127.36L116.348 147.804C117.349 148.379 118.157 149.925 118.157 151.267L118.13 179.046C118.13 179.799 117.869 180.319 117.472 180.524L115.827 181.482Z" fill="#396CAA"/>
<path d="M94.24 166.853L92.0199 165.567L79.8502 144.465L79.8639 130.603L78.0686 128.263L79.7543 127.291C80.0832 127.086 80.508 127.086 80.974 127.36L116.346 147.804C116.88 148.105 117.346 148.694 117.675 149.364L94.24 166.853Z" fill="#396CAA"/>
<path d="M78.8798 129.303L78.085 128.263L79.7706 127.291C80.0995 127.086 80.5244 127.086 80.9903 127.36L81.607 127.716L78.8798 129.303Z" fill="#396CAA"/>
<path d="M116.661 148.032C117.442 148.675 118.059 149.893 118.141 151.001L114.687 152.999L113.029 150.125L116.661 148.032Z" fill="#396CAA"/>
<path d="M114.662 148.773L79.3042 128.329C78.3038 127.754 77.4952 128.356 77.4952 129.697L77.4678 157.477C77.4678 158.804 78.2763 160.364 79.2768 160.939L114.635 181.383C115.635 181.958 116.444 181.356 116.444 180.015L116.471 152.235C116.471 150.908 115.662 149.362 114.662 148.773Z" fill="#D4ECFF"/>
<path d="M115.196 148.456L79.8382 128.011C79.2489 127.669 78.7281 127.751 78.3992 128.148C78.6733 128.093 78.9748 128.148 79.3037 128.34L114.662 148.784C115.662 149.359 116.471 150.905 116.471 152.246L116.443 180.026C116.443 180.573 116.306 180.984 116.073 181.257C116.608 181.148 116.978 180.587 116.978 179.697L117.005 151.918C117.005 150.591 116.196 149.03 115.196 148.456Z" fill="white"/>
<path d="M107.396 168.694L105.71 167.723V153.286L107.396 154.257V168.694Z" fill="white"/>
<path d="M103.465 166.442L101.78 165.471V151.02L103.465 151.992V166.442Z" fill="white"/>
<path d="M99.5301 164.167L97.8445 163.195V148.744L99.5301 149.716V164.167Z" fill="white"/>
<path d="M93.9954 128.206C93.9954 128.206 92.5153 137.101 92.7483 139.947C92.9675 142.794 94.5025 147.488 95.6536 147.392C96.8185 147.296 95.6948 135.938 97.723 137.074C99.7513 138.21 99.9706 140.139 100.889 139.455C101.807 138.771 99.2854 129.068 99.9569 124.867C100.642 120.652 93.9954 128.206 93.9954 128.206Z" fill="#FFC2B0"/>
<path d="M132.943 31.4463C140.097 33.978 141.481 32.4316 141.549 32.3495C141.618 31.9253 141.673 31.4874 141.7 31.0358C141.796 29.4621 141.618 27.9294 141.22 26.4925L122.678 23.9883C122.678 23.9883 125.611 28.8463 132.943 31.4463Z" fill="#EA9C92"/>
<path d="M142.22 16.8581C140.534 15.4213 134.45 8.29164 123.568 9.96115C116.757 11.0149 111.028 15.6539 109.754 26.232C108.89 33.3616 111.522 40.3818 116.346 45.5682C116.606 45.445 116.88 45.3356 117.113 45.1713C119.84 43.3787 120.142 42.3934 120.142 42.3797L120.745 36.988C120.731 36.2217 120.156 35.5375 119.388 35.4964C118.799 35.4554 118.073 35.1817 117.387 34.2785C115.825 32.2395 116.551 29.051 119.676 28.9279C121.307 28.8594 121.937 27.9836 122.17 27.1489C122.376 26.4236 123.13 26.0267 123.842 26.2867C127.405 27.5731 136.176 30.351 141.823 28.75C149.031 26.711 143.906 18.3087 142.22 16.8581Z" fill="#FF2C9C"/>
<path d="M134.094 37.8741L138.452 36.6836C138.452 36.6836 136.369 39.9542 133.326 40.7889C130.284 41.6237 129.818 39.051 129.818 39.051L134.094 37.8741Z" fill="white"/>
<path d="M101.41 139.169L97.6956 137.048L99.0934 139.32L100.971 140.018L101.41 139.169Z" fill="#396CAA"/>
<path d="M119.155 34.6332C119.155 35.4543 118.497 36.1111 117.674 36.1111C116.852 36.1111 116.194 35.4543 116.194 34.6332C116.194 33.8121 116.852 33.1553 117.674 33.1553C118.497 33.169 119.155 33.8258 119.155 34.6332Z" fill="white"/>
<path d="M342.568 251.871C361.687 251.871 377.186 242.938 377.186 231.919C377.186 220.9 361.687 211.967 342.568 211.967C323.449 211.967 307.95 220.9 307.95 231.919C307.95 242.938 323.449 251.871 342.568 251.871Z" fill="#699DD1"/>
<path d="M344.597 221.412C344.213 222.37 337.553 230.471 330.893 232.496C328.001 233.372 326.055 233.495 324.78 233.345C323.506 233.194 322.711 231.881 323.136 230.663C324.287 227.447 327.562 220.728 335.908 216.595C347.215 210.998 344.597 221.412 344.597 221.412Z" fill="#173D7A"/>
<path d="M346.816 224.519C346.816 224.519 344.308 230.403 343.54 235.316C343.074 238.313 344.719 242.213 346.076 244.785C346.912 246.386 349.05 246.742 350.393 245.538C352.572 243.567 355.34 240.146 355.792 235.22C356.56 226.927 355.792 225.49 355.792 225.49L346.816 224.519Z" fill="#173D7A"/>
<path d="M362.863 124.335C362.863 124.335 363.727 134.79 362.863 146.353C362 157.916 358.889 212.011 358.3 225.011C358.3 225.011 358.587 228.953 350.954 228.077C343.32 227.215 343.937 222.836 343.937 222.836C343.937 222.836 333.206 222.685 332.878 216.377C332.535 210.068 321.886 140.989 321.886 116.165L362.863 124.335Z" fill="#D4ECFF"/>
<path d="M343.937 222.858C343.937 222.858 342.608 222.844 340.867 222.543L338.771 138.465L343.937 222.858Z" fill="#396CAA"/>
<path d="M351.516 47.6205C368.839 54.7911 368.496 65.0271 368.496 65.0271C368.496 65.0271 365.097 102.523 366.262 127.565C366.742 138.034 310.567 138.828 318.94 110.911C328.821 77.9863 325.121 51.329 329.739 47.3057C334.371 43.2688 347.035 45.7594 351.516 47.6205Z" fill="#5DA2FA"/>
<path d="M357.096 56.6893C356.192 60.2062 351.587 62.0536 346.804 60.822C342.021 59.5904 338.883 55.7451 339.787 52.2419C340.692 48.7249 345.296 46.8775 350.079 48.1092C354.862 49.3271 358.001 53.1724 357.096 56.6893Z" fill="#FFC2B0"/>
<path d="M349.723 62.2865C348.681 62.2865 347.613 62.1497 346.53 61.876C341.171 60.4938 337.677 56.0464 338.732 51.9684C339.253 49.9294 340.801 48.301 343.076 47.3841C345.228 46.522 347.818 46.3988 350.353 47.0557C352.889 47.7125 355.095 49.0536 356.562 50.86C358.11 52.7621 358.672 54.9242 358.151 56.9632C357.315 60.2201 353.821 62.2865 349.723 62.2865ZM347.119 48.8073C345.968 48.8073 344.872 49.0126 343.885 49.3957C342.268 50.0389 341.185 51.1473 340.842 52.5021C340.089 55.4306 342.884 58.6875 347.078 59.7686C351.272 60.8496 355.301 59.3443 356.041 56.4159C356.397 55.0611 355.972 53.5695 354.876 52.2284C353.697 50.7915 351.902 49.6968 349.805 49.1631C348.914 48.9168 347.996 48.8073 347.119 48.8073Z" fill="white"/>
<path d="M344.584 46.8372C344.584 46.8372 344.734 47.5351 344.433 53.0089C344.337 54.7331 350.381 56.3479 351.943 54.7878C353.505 53.2278 352.875 51.5994 353.259 45.7424C353.629 39.8717 344.584 46.8372 344.584 46.8372Z" fill="#FFC2B0"/>
<path d="M353.245 45.7417C353.245 45.7417 351.751 51.1744 344.419 53.2682L344.529 48.3281L353.245 45.7417Z" fill="#EA9C92"/>
<path d="M357.902 31.9186C359.752 39.0345 355.463 46.301 348.322 48.1484C341.196 49.9958 333.919 45.7126 332.069 38.5829C330.219 31.467 334.508 24.2005 341.648 22.3531C348.775 20.5194 356.052 24.789 357.902 31.9186Z" fill="#FFC2B0"/>
<path d="M348.049 35.7398C348.049 35.7398 340.703 38.8872 335.618 38.9146C330.534 38.942 331.658 34.6998 331.658 34.6998L346.747 32.5239L348.049 35.7398Z" fill="#EA9C92"/>
<path d="M334.098 36.5787C334.098 36.5787 340.498 33.8692 346.103 34.9913C347.419 35.2513 348.639 35.9629 349.488 37.0029C349.762 37.345 350.119 37.6598 350.516 37.7419C351.516 37.9608 353.134 33.8418 355.08 33.746C357.012 33.6502 358.3 35.0187 356.724 37.5503C355.135 40.0819 355.669 42.9283 356.409 43.3252C357.135 43.7357 364.878 37.8103 358.054 24.3037C351.229 10.7971 333.879 18.0773 331.193 20.8142C331.193 20.8142 328.356 23.2911 326.04 21.0879C326.026 21.1016 323.436 40.4788 334.098 36.5787Z" fill="#FF2C9C"/>
<path d="M321.27 44.5481L311.951 40.5385C310.882 40.0732 310.06 39.1974 309.676 38.089L300.48 11.459L296.218 12.1979L303.66 45.3281C304.002 46.8744 304.989 48.2018 306.373 48.9818L321.887 57.6852L321.27 44.5481Z" fill="#FFC2B0"/>
<path d="M418.205 48.879L420.343 47.8937C422.165 47.059 423.824 45.9095 425.249 44.5137L426.743 43.0494C427.579 42.2283 427.825 40.9694 427.373 39.8883C427.017 39.0399 426.016 38.6704 425.194 39.0946L420.726 41.3525C420.726 41.3525 421.425 39.382 421.083 38.862C420.74 38.342 417.286 42.1599 415.697 44.8558C414.107 47.5379 418.205 48.879 418.205 48.879Z" fill="#FFC2B0"/>
<path d="M381.024 59.5228L388.986 58.6333C390.878 58.4281 392.687 57.8396 394.345 56.8954L415.697 44.8257L418.205 48.8626L396.373 65.6945C395.702 66.2145 394.962 66.6524 394.18 66.9809L381.161 72.5368L381.024 59.5228Z" fill="#FFC2B0"/>
<path d="M296.219 12.2028L295.41 11.2723C294.478 10.1912 293.861 8.8638 293.656 7.45429L293.08 3.5679C292.902 2.36366 293.382 1.13206 294.355 0.40678C294.396 0.379411 294.423 0.352042 294.464 0.324673C295.492 -0.386921 296.931 0.13309 297.411 1.28259L299.33 5.90795C299.33 5.90795 298.727 3.51316 299.494 3.25315C300.056 3.06157 301.139 6.03111 300.508 7.68693C299.878 9.34275 300.467 11.4638 300.467 11.4638L296.219 12.2028Z" fill="#FFC2B0"/>
<path d="M339.689 44.4335L336.249 43.4893C336.249 43.4893 337.893 46.0756 340.292 46.7325C342.69 47.3893 343.06 45.364 343.06 45.364L339.689 44.4335Z" fill="white"/>
<path d="M334.522 45.3756C334.522 45.3756 318.954 42.3103 314.212 40.8597C309.456 39.4229 307.469 52.4505 307.839 55.7621C308.196 59.0601 324.381 62.7549 326.313 68.4203C328.232 74.0857 334.522 45.3756 334.522 45.3756Z" fill="#2A6CBF"/>
<path d="M358.33 51.0967C358.33 51.0967 369.704 55.9684 388.74 58.3495C389.508 58.4452 390.179 58.9516 390.439 59.6905C391.18 61.7979 392.427 66.3959 391.454 71.1171C391.056 73.0603 389.288 74.4287 387.287 74.415C381.326 74.374 368.498 74.9487 366.429 80.5046C363.688 87.7985 358.33 51.0967 358.33 51.0967Z" fill="#2A6CBF"/>
<path d="M351.628 61.3414L348.503 64.7215C348.092 65.1594 347.9 65.7478 347.969 66.3499L350.107 84.865C350.162 85.385 350.025 85.905 349.709 86.3156L342.994 95.0873C342.693 95.4705 342.09 95.3747 341.939 94.9094L338.28 83.4281C338.143 82.9902 338.156 82.525 338.321 82.1008L344.748 65.2825C344.885 64.913 344.926 64.5162 344.844 64.133L343.899 59.6719L351.628 61.3414Z" fill="white"/>
<path d="M385.711 70.9673C382.312 71.3641 373.952 72.0757 367.525 72.6094C363.838 72.9105 361.399 76.4548 362.331 80.0264C365.757 93.1636 361.221 114.279 362.043 121.422C363.016 129.975 357.836 133.286 357.808 133.3C362.934 132.192 366.401 130.18 366.278 127.539C365.565 112.158 366.565 92.0962 367.456 78.8906C371.197 74.8126 382.052 74.3611 387.355 74.4021C389.384 74.4158 391.083 72.9789 391.48 70.9947C391.974 68.5315 391.864 66.123 391.535 64.0703C391.521 64.2208 391.521 70.2968 385.711 70.9673Z" fill="#396CAA"/>
<path d="M239.293 325.632C261.924 325.632 280.27 315.057 280.27 302.013C280.27 288.968 261.924 278.393 239.293 278.393C216.662 278.393 198.316 288.968 198.316 302.013C198.316 315.057 216.662 325.632 239.293 325.632Z" fill="#D3008D"/>
<path d="M214.186 289.49C211.335 290.708 209.54 293.883 209.773 297.304C209.882 298.918 210.074 300.424 210.417 301.122C211.321 303.024 214.309 305.638 219.051 303.763C223.806 301.888 234.359 291.98 234.756 285.508C235.483 273.465 221.696 286.288 214.186 289.49Z" fill="#173D7A"/>
<path d="M242.102 309.403C242.102 309.403 240.964 316.341 241.513 317.614C242.061 318.886 245.377 321.596 250.256 321.007C255.149 320.419 269.196 315.575 272.334 306.324C277.186 291.983 245.199 307.405 245.199 307.405L242.102 309.403Z" fill="#173D7A"/>
<path d="M255.834 198.451L256.916 306.805C256.807 310.568 254.326 313.756 251.01 314.317C250.599 314.386 250.16 314.44 249.694 314.482C246.323 314.769 244.363 313.332 243.253 311.813C242.348 310.581 241.869 309.035 241.8 307.434L240.416 261.18L233.495 219.826L223.929 293.024C223.779 295.009 222.833 296.829 221.298 297.841C220.243 298.539 218.818 299.073 216.94 299.018C214.199 298.936 212.294 297.472 211.143 296.172C210.225 295.132 209.745 293.708 209.759 292.258L213.555 248.221L214.967 192.046L255.834 198.451Z" fill="#D4ECFF"/>
<path d="M241.788 101.455L240.075 111.335C240.075 111.335 240.007 114.702 243.776 115.632C247.544 116.563 248.709 114.141 248.709 114.141L250.409 103.015L241.788 101.455Z" fill="#FFC2B0"/>
<path d="M262.618 95.8245C265.184 87.3297 261.126 78.5942 253.553 76.3133C245.981 74.0324 237.762 79.0698 235.196 87.5646C232.629 96.0594 236.688 104.795 244.26 107.076C251.833 109.357 260.052 104.319 262.618 95.8245Z" fill="#FFC2B0"/>
<path d="M242.226 111.494C241.966 111.385 226.246 101.285 220.436 111.863C210.966 129.106 217.887 148.894 214.515 191.822C213.953 199.006 224.204 203.385 229.042 206.15C233.359 208.613 238.183 210.118 243.144 210.159C248.051 210.2 257.479 205.835 257.137 199.43C255.561 169.94 258.178 145.076 260.59 120.95C260.59 120.936 257.575 117.707 242.226 111.494Z" fill="#5DA2FA"/>
<path d="M233.497 219.825L223.931 293.023C223.78 295.007 222.834 296.827 221.3 297.84C221.053 298.004 220.779 298.155 220.477 298.305C222.464 296.814 228.262 235.37 229.33 228.542C230.413 221.713 233.497 219.825 233.497 219.825Z" fill="#396CAA"/>
<path d="M293.205 120.436L306.375 94.3535L302.236 91.7534L288.6 111.623L293.205 120.436Z" fill="#FFC2B0"/>
<path d="M206.386 92.7324L212.787 63.6528L217.898 63.7076L215.98 87.8333L206.386 92.7324Z" fill="#FFC2B0"/>
<path d="M260.589 120.941C260.589 120.941 275.308 126.743 287.957 110.801C289.067 109.391 291.356 109.556 292.013 111.061C293.151 113.675 294.576 117.616 292.849 121.324C285.202 137.705 259.122 137.143 252.832 146.326C246.555 155.522 260.589 120.941 260.589 120.941Z" fill="#2A6CBF"/>
<path d="M232.262 107.887C232.262 107.887 220.106 108.817 218.351 98.3074C217.447 92.9021 217.187 89.6725 217.132 87.8114C217.104 86.5525 216.008 85.5946 214.747 85.7451C211.842 86.1009 207.333 86.9767 206.716 88.9199C205.798 91.8347 204.085 106.094 216.09 127.989C223.957 142.33 232.262 107.887 232.262 107.887Z" fill="#2A6CBF"/>
<path d="M212.774 63.7257L212.884 60.4141C212.925 59.2372 213.268 58.1014 213.871 57.1024L217.242 51.5739L218.119 50.4655C218.928 49.4391 220.38 49.1928 221.49 49.8907L222.271 50.3834C223.258 50.9992 223.834 52.1076 223.752 53.2708L222.011 57.9919L224.218 57.5677C224.642 57.4856 225.053 57.773 225.136 58.1972C225.204 58.5667 224.999 58.9225 224.656 59.0593L221.065 60.5099L217.804 65.1216L212.774 63.7257Z" fill="#FFC2B0"/>
<path d="M306.472 94.5183L308.007 91.5762C308.555 90.5361 308.815 89.3729 308.788 88.2098L308.596 81.7507L308.377 80.3549C308.171 79.0685 307.033 78.138 305.732 78.1927L304.813 78.2338C303.648 78.2885 302.607 78.9727 302.1 80.0128L301.278 84.9802L299.578 83.5297C299.249 83.2423 298.742 83.2834 298.468 83.6255C298.235 83.9128 298.221 84.3234 298.454 84.6107L300.866 87.6487L301.497 93.9709L306.472 94.5183Z" fill="#FFC2B0"/>
<path d="M250.981 143.055C249.707 148.885 257.409 192.825 248.844 208.905C253.133 207.167 257.368 203.773 257.135 199.435C256.011 178.347 257.025 159.627 258.574 141.851C265.906 138.142 277.363 135.925 285.462 130.014C276.773 133.188 252.133 137.841 250.981 143.055Z" fill="#2A6CBF"/>
<path d="M236.578 108.716L238.757 106.472C238.757 106.472 242.348 110.139 245.239 110.769C245.239 110.769 248.707 111.754 250.406 111.836L251.818 115.709C251.818 115.709 240.374 114.888 236.578 108.716Z" fill="white"/>
<path d="M252.284 96.3051C252.887 96.2915 253.449 96.0178 253.791 95.5251C254.394 94.663 254.011 90.6945 255.847 90.0376C258.725 89.0113 265.536 92.6103 266.276 82.2512C266.66 76.8732 264.029 75.4363 264.042 72.4941C264.042 72.4941 264.275 73.9721 250.406 73.0552C236.537 72.1383 232.028 84.4407 231.699 90.2977C231.371 96.1546 234.207 105.788 243.691 107.116C245.267 107.335 251.859 102.039 251.694 101.341C251.53 100.643 249.036 100.684 249.392 98.6589C249.68 96.9483 250.708 96.3325 252.284 96.3051Z" fill="#173D7A"/>
<path d="M53.3063 161.926L18.2773 141.727C17.5784 141.33 16.9617 141.317 16.4683 141.577V141.549L13.0696 143.506C13.0696 143.506 14.5771 144.054 15.4542 144.382V169.849C15.4542 171.915 16.715 174.324 18.2773 175.227L51.7577 194.522V197.505L55.1838 195.535H55.1701C55.7457 195.179 56.1158 194.413 56.1158 193.29V167.276C56.1295 165.237 54.8686 162.829 53.3063 161.926Z" fill="#5793CE"/>
<path d="M49.8521 197.437L14.8231 177.238C13.2608 176.335 12 173.927 12 171.86V145.86C12 143.794 13.2608 142.836 14.8231 143.739L49.8521 163.937C51.4144 164.84 52.6753 167.235 52.6753 169.315V195.316C52.6616 197.368 51.4007 198.326 49.8521 197.437Z" fill="#D4ECFF"/>
<path d="M49.8515 163.923L14.8226 143.725C13.9318 143.219 13.1643 143.314 12.6436 143.875C13.0136 143.848 13.4384 143.93 13.8907 144.19L48.9196 164.388C50.482 165.292 51.7428 167.686 51.7428 169.766V195.767C51.7428 196.656 51.4961 197.327 51.1124 197.751C52.0443 197.669 52.6884 196.78 52.6884 195.302V169.301C52.661 167.221 51.4002 164.813 49.8515 163.923Z" fill="white"/>
<path d="M26.5933 168.276C26.5933 169.781 25.538 170.397 24.2361 169.644C22.9342 168.891 21.8789 167.058 21.8789 165.552C21.8789 164.047 22.9342 163.431 24.2361 164.184C25.538 164.937 26.5933 166.77 26.5933 168.276Z" fill="white"/>
<path d="M33.7642 172.409C33.7642 173.915 32.7089 174.531 31.407 173.778C30.1051 173.025 29.0498 171.192 29.0498 169.686C29.0498 168.181 30.1051 167.565 31.407 168.318C32.6952 169.07 33.7642 170.904 33.7642 172.409Z" fill="white"/>
<path d="M40.9173 176.527C40.9173 178.032 39.862 178.648 38.5601 177.896C37.2581 177.143 36.2029 175.309 36.2029 173.804C36.2029 172.299 37.2581 171.683 38.5601 172.435C39.862 173.188 40.9173 175.022 40.9173 176.527Z" fill="white"/>
<path d="M59.8032 342.327L36.1902 355.943V328.711L59.8032 315.095V342.327Z" fill="#D3008D"/>
<path d="M36.1868 328.712L12.5737 315.096L36.1868 301.493L59.7998 315.096L36.1868 328.712Z" fill="#FF2C9C"/>
<path d="M36.1865 355.943L12.5735 342.327V315.095L36.1865 328.711V355.943Z" fill="#FF2C9C"/>
<path d="M27.6942 341.236L21.0886 337.431V329.809L27.6942 333.613V341.236Z" fill="white"/>
<path d="M442.791 355.837L418.205 370V341.66L442.791 327.482V355.837Z" fill="#173D7A"/>
<path d="M418.205 341.656L393.633 327.479L418.205 313.315L442.791 327.479L418.205 341.656Z" fill="#D4ECFF"/>
<path d="M418.205 370L393.633 355.837V327.482L418.205 341.66V370Z" fill="#5793CE"/>
<path d="M409.352 354.682L402.486 350.727V342.79L409.352 346.759V354.682Z" fill="white"/>
<path d="M434.144 161.474L399.896 141.727C399.224 141.33 398.608 141.316 398.128 141.59V141.563L394.812 143.478C394.812 143.478 396.278 144.012 397.141 144.327V169.233C397.141 171.258 398.375 173.612 399.896 174.488L432.623 193.358V196.287L435.98 194.357H435.966C436.528 194.015 436.898 193.249 436.898 192.168V166.742C436.898 164.703 435.665 162.349 434.144 161.474Z" fill="#D3008D"/>
<path d="M430.758 196.173L396.51 176.426C394.989 175.551 393.755 173.197 393.755 171.172V145.746C393.755 143.721 394.989 142.79 396.51 143.666L430.758 163.413C432.279 164.288 433.512 166.642 433.512 168.667V194.093C433.512 196.118 432.279 197.049 430.758 196.173Z" fill="#FF2C9C"/>
<path d="M431.606 162.814L397.358 143.068C396.398 142.506 395.549 142.684 395.055 143.396C395.48 143.287 395.974 143.355 396.522 143.67L430.77 163.416C432.291 164.292 433.524 166.646 433.524 168.671V194.097C433.524 194.836 433.36 195.438 433.072 195.849C433.853 195.643 434.36 194.809 434.36 193.495V168.069C434.36 166.044 433.127 163.69 431.606 162.814Z" fill="white"/>
<path d="M408.036 167.671C408.036 169.148 407.008 169.737 405.72 168.998C404.445 168.259 403.404 166.466 403.404 165.002C403.404 163.524 404.432 162.936 405.72 163.675C406.994 164.414 408.036 166.206 408.036 167.671Z" fill="white"/>
<path d="M415.037 171.712C415.037 173.189 414.009 173.778 412.721 173.039C411.447 172.3 410.405 170.507 410.405 169.043C410.405 167.565 411.433 166.977 412.721 167.716C413.996 168.455 415.037 170.247 415.037 171.712Z" fill="white"/>
<path d="M422.029 175.748C422.029 177.226 421.001 177.814 419.713 177.075C418.439 176.336 417.397 174.543 417.397 173.079C417.397 171.601 418.425 171.013 419.713 171.752C421.001 172.491 422.029 174.27 422.029 175.748Z" fill="white"/>
</g>
<defs>
<filter id="filter0_d_3337_1235" x="0.7" y="0" width="453.392" height="399.3" filterUnits="userSpaceOnUse" color-interpolation-filters="sRGB">
<feFlood flood-opacity="0" result="BackgroundImageFix"/>
<feColorMatrix in="SourceAlpha" type="matrix" values="0 0 0 0 0 0 0 0 0 0 0 0 0 0 0 0 0 0 127 0" result="hardAlpha"/>
<feOffset dy="18"/>
<feGaussianBlur stdDeviation="5.65"/>
<feComposite in2="hardAlpha" operator="out"/>
<feColorMatrix type="matrix" values="0 0 0 0 0 0 0 0 0 0 0 0 0 0 0 0 0 0 0.5 0"/>
<feBlend mode="normal" in2="BackgroundImageFix" result="effect1_dropShadow_3337_1235"/>
<feBlend mode="normal" in="SourceGraphic" in2="effect1_dropShadow_3337_1235" result="shape"/>
</filter>
</defs>
</svg>
