<svg xmlns="http://www.w3.org/2000/svg" xmlns:xlink="http://www.w3.org/1999/xlink" width="1024px" height="1024px" style="shape-rendering:geometricPrecision; text-rendering:geometricPrecision; image-rendering:optimizeQuality; fill-rule:evenodd; clip-rule:evenodd"><g><path style="opacity:0.942" fill="#e32428" d="M 212.5,213.5 C 229.503,213.333 246.503,213.5 263.5,214C 287.236,213.424 302.736,224.257 310,246.5C 335.824,391.78 361.324,537.113 386.5,682.5C 430.249,673.622 460.749,689.622 478,730.5C 479.89,736.015 480.724,741.681 480.5,747.5C 572.975,732.532 665.308,716.699 757.5,700C 771.551,697.247 783.051,690.414 792,679.5C 798.698,668.062 796.198,659.562 784.5,654C 776.404,650.967 768.071,649.967 759.5,651C 673.711,667.825 587.711,683.491 501.5,698C 491.5,698.667 481.5,698.667 471.5,698C 452.529,694.357 439.696,683.524 433,665.5C 430.413,655.898 428.079,646.231 426,636.5C 409.638,552.023 394.305,467.356 380,382.5C 376.162,363.314 378.496,344.981 387,327.5C 395.416,315.751 406.583,307.918 420.5,304C 515.26,286.581 610.26,270.581 705.5,256C 740.74,253.705 763.24,269.539 773,303.5C 788.092,389.626 802.925,475.793 817.5,562C 816.787,573.214 810.787,579.38 799.5,580.5C 790.654,580.146 784.821,575.813 782,567.5C 767.667,484.501 753.334,401.501 739,318.5C 737.769,308.979 733.603,301.146 726.5,295C 722.227,292.973 717.727,291.807 713,291.5C 621.298,305.423 529.798,320.589 438.5,337C 418.678,340.108 410.844,351.608 415,371.5C 430.459,464.128 447.459,556.461 466,648.5C 468.249,658.906 474.749,663.906 485.5,663.5C 576.06,648.629 666.393,632.462 756.5,615C 780.192,612.125 801.026,618.292 819,633.5C 832.025,650.062 835.025,668.395 828,688.5C 818.629,708.205 803.795,722.038 783.5,730C 779.5,731.333 775.5,732.667 771.5,734C 672.767,752.447 573.767,769.28 474.5,784.5C 458.341,815.585 432.674,829.418 397.5,826C 358.11,817.778 337.11,793.612 334.5,753.5C 334.558,737.328 339.224,722.662 348.5,709.5C 321.575,562.708 295.742,415.708 271,268.5C 269.934,261.2 266.434,255.367 260.5,251C 249.658,244.368 237.991,239.701 225.5,237C 219.808,234.239 214.975,230.406 211,225.5C 209.096,222.378 208.429,219.045 209,215.5C 210.302,214.915 211.469,214.249 212.5,213.5 Z M 404.5,715.5 C 428.61,717.033 442.276,729.7 445.5,753.5C 441.865,778.969 427.198,791.135 401.5,790C 378.187,783.025 368.354,767.525 372,743.5C 377.392,727.738 388.225,718.405 404.5,715.5 Z"></path></g><g><path style="opacity:0.929" fill="#e7aa21" d="M 635.5,377.5 C 653.428,376.59 660.928,384.924 658,402.5C 656.167,407 653,410.167 648.5,412C 609.965,418.922 571.298,425.089 532.5,430.5C 517.098,428.924 511.264,420.59 515,405.5C 516.833,401 520,397.833 524.5,396C 561.624,389.74 598.624,383.574 635.5,377.5 Z"></path></g></svg>