<svg xmlns="http://www.w3.org/2000/svg" xmlns:xlink="http://www.w3.org/1999/xlink" width="512px" height="512px" style="shape-rendering:geometricPrecision; text-rendering:geometricPrecision; image-rendering:optimizeQuality; fill-rule:evenodd; clip-rule:evenodd"><g><path style="opacity:1" fill="#fefefe" d="M -0.5,-0.5 C 170.167,-0.5 340.833,-0.5 511.5,-0.5C 511.5,170.167 511.5,340.833 511.5,511.5C 340.833,511.5 170.167,511.5 -0.5,511.5C -0.5,340.833 -0.5,170.167 -0.5,-0.5 Z"></path></g><g><path style="opacity:1" fill="#5e95c8" d="M 356.5,97.5 C 271.792,97.1721 187.126,97.5055 102.5,98.5C 102.611,97.8826 102.944,97.3826 103.5,97C 188.001,96.1677 272.334,96.3343 356.5,97.5 Z"></path></g><g><path style="opacity:1" fill="#3b7dbb" d="M 356.5,97.5 C 389.163,102.329 408.663,120.995 415,153.5C 416.462,187.431 401.629,210.931 370.5,224C 288.048,251.371 206.048,279.705 124.5,309C 121.386,312.06 118.886,315.56 117,319.5C 116.5,344.831 116.333,370.164 116.5,395.5C 189.167,395.667 261.834,395.5 334.5,395C 373.398,386.229 394.065,361.895 396.5,322C 394.434,291.271 379.6,269.104 352,255.5C 348.109,244.431 351.942,239.598 363.5,241C 391.015,255.014 407.682,277.181 413.5,307.5C 414.218,316.482 414.552,325.482 414.5,334.5C 407.271,376.562 382.938,402.729 341.5,413C 261.853,414.637 182.186,414.971 102.5,414C 100.19,412.363 98.6898,410.196 98,407.5C 97.3333,377.5 97.3333,347.5 98,317.5C 101.407,305.423 108.574,296.256 119.5,290C 202.706,260.932 286.039,232.265 369.5,204C 386.438,194.974 395.438,180.808 396.5,161.5C 394.128,135.627 380.128,120.46 354.5,116C 275.167,115.5 195.834,115.333 116.5,115.5C 116.667,167.501 116.5,219.501 116,271.5C 111.552,279.408 105.885,280.408 99,274.5C 97.3417,217.249 97.0083,159.916 98,102.5C 98.8763,100.365 100.376,99.0312 102.5,98.5C 187.126,97.5055 271.792,97.1721 356.5,97.5 Z"></path></g><g><path style="opacity:1" fill="#3b7ebb" d="M 194.5,152.5 C 216.605,151.119 231.438,160.786 239,181.5C 241.289,206.101 230.456,221.268 206.5,227C 183.205,227.716 169.372,216.55 165,193.5C 165.031,172.77 174.864,159.103 194.5,152.5 Z"></path></g><g><path style="opacity:1" fill="#fbfcfd" d="M 196.5,171.5 C 213.669,170.501 221.502,178.501 220,195.5C 215.488,205.685 207.655,209.852 196.5,208C 184.685,201.887 181.185,192.721 186,180.5C 189.078,176.915 192.578,173.915 196.5,171.5 Z"></path></g><g><path style="opacity:1" fill="#3a7dbb" d="M 285.5,284.5 C 308.489,281.733 323.989,291.066 332,312.5C 335.051,334.584 326.217,349.418 305.5,357C 281.461,361.398 265.961,351.898 259,328.5C 256.813,307.188 265.647,292.522 285.5,284.5 Z"></path></g><g><path style="opacity:1" fill="#fbfcfd" d="M 290.5,302.5 C 309.056,302.548 316.222,311.548 312,329.5C 305.441,339.792 296.607,342.292 285.5,337C 277.592,330.489 275.425,322.322 279,312.5C 281.794,307.866 285.627,304.533 290.5,302.5 Z"></path></g><g><path style="opacity:1" fill="#73a1ce" d="M 413.5,307.5 C 415.015,312.58 415.682,317.914 415.5,323.5C 415.499,327.349 415.165,331.016 414.5,334.5C 414.552,325.482 414.218,316.482 413.5,307.5 Z"></path></g></svg>