<svg xmlns="http://www.w3.org/2000/svg" xmlns:xlink="http://www.w3.org/1999/xlink" width="225px" height="225px" style="shape-rendering:geometricPrecision; text-rendering:geometricPrecision; image-rendering:optimizeQuality; fill-rule:evenodd; clip-rule:evenodd"><g><path style="opacity:1" fill="#fefafa" d="M -0.5,-0.5 C 74.5,-0.5 149.5,-0.5 224.5,-0.5C 224.5,24.5 224.5,49.5 224.5,74.5C 222.543,57.2871 217.377,40.9538 209,25.5C 203.4,16.5656 195.9,9.73222 186.5,5C 139.879,3.35328 93.2124,3.01995 46.5,4C 34.8891,6.29076 26.0558,12.4574 20,22.5C 9.41031,42.7643 2.57697,64.0976 -0.5,86.5C -0.5,57.5 -0.5,28.5 -0.5,-0.5 Z"></path></g><g><path style="opacity:1" fill="#e73c3e" d="M 224.5,74.5 C 224.5,77.5 224.5,80.5 224.5,83.5C 222.525,90.9809 217.858,96.1476 210.5,99C 187.502,99.5 164.502,99.6666 141.5,99.5C 141.452,127.657 149.285,153.324 165,176.5C 174.773,189.141 187.273,197.975 202.5,203C 208.095,209.042 207.428,214.375 200.5,219C 181.344,222.788 163.344,219.788 146.5,210C 142.63,207.235 138.63,204.735 134.5,202.5C 128.746,206.749 123.412,211.582 118.5,217C 112.543,220.763 106.21,221.429 99.5,219C 93.3217,213.487 87.155,207.987 81,202.5C 75.5438,206.954 70.3772,211.787 65.5,217C 60.2616,220.266 54.595,221.266 48.5,220C 41.6253,214.793 35.7919,208.626 31,201.5C 13.0534,175.487 2.55336,146.821 -0.5,115.5C -0.5,105.833 -0.5,96.1667 -0.5,86.5C 2.57697,64.0976 9.41031,42.7643 20,22.5C 26.0558,12.4574 34.8891,6.29076 46.5,4C 93.2124,3.01995 139.879,3.35328 186.5,5C 195.9,9.73222 203.4,16.5656 209,25.5C 217.377,40.9538 222.543,57.2871 224.5,74.5 Z"></path></g><g><path style="opacity:1" fill="#fefdfd" d="M 47.5,16.5 C 81.835,16.3333 116.168,16.5 150.5,17C 141.479,28.3598 135.313,41.1932 132,55.5C 125.444,86.8308 126.777,117.831 136,148.5C 143.594,173.211 158.094,192.711 179.5,207C 165.414,205.792 153.081,200.459 142.5,191C 136.325,188.744 130.325,189.077 124.5,192C 119.255,197.75 113.588,202.917 107.5,207.5C 101.046,202.217 94.7124,196.717 88.5,191C 82.1005,188.551 76.1005,189.217 70.5,193C 65.5877,198.418 60.2543,203.251 54.5,207.5C 42.9253,196.407 33.7586,183.407 27,168.5C 5.64629,119.592 7.97962,71.9257 34,25.5C 37.8823,21.4293 42.3823,18.4293 47.5,16.5 Z"></path></g><g><path style="opacity:1" fill="#fefdfd" d="M 171.5,16.5 C 180.355,15.5121 187.522,18.5121 193,25.5C 204.821,42.6298 210.821,61.6298 211,82.5C 210.5,84.3333 209.333,85.5 207.5,86C 185.503,86.5 163.503,86.6666 141.5,86.5C 141.331,64.1596 147.498,43.8263 160,25.5C 163.449,21.8766 167.283,18.8766 171.5,16.5 Z"></path></g><g><path style="opacity:1" fill="#e73e40" d="M 49.5,53.5 C 66.17,53.3334 82.8367,53.5001 99.5,54C 105.252,57.1809 105.919,61.1809 101.5,66C 83.8333,66.6667 66.1667,66.6667 48.5,66C 44.3794,61.5367 44.7127,57.3701 49.5,53.5 Z"></path></g><g><path style="opacity:1" fill="#fefdfd" d="M 224.5,83.5 C 224.5,130.5 224.5,177.5 224.5,224.5C 149.5,224.5 74.5,224.5 -0.5,224.5C -0.5,188.167 -0.5,151.833 -0.5,115.5C 2.55336,146.821 13.0534,175.487 31,201.5C 35.7919,208.626 41.6253,214.793 48.5,220C 54.595,221.266 60.2616,220.266 65.5,217C 70.3772,211.787 75.5438,206.954 81,202.5C 87.155,207.987 93.3217,213.487 99.5,219C 106.21,221.429 112.543,220.763 118.5,217C 123.412,211.582 128.746,206.749 134.5,202.5C 138.63,204.735 142.63,207.235 146.5,210C 163.344,219.788 181.344,222.788 200.5,219C 207.428,214.375 208.095,209.042 202.5,203C 187.273,197.975 174.773,189.141 165,176.5C 149.285,153.324 141.452,127.657 141.5,99.5C 164.502,99.6666 187.502,99.5 210.5,99C 217.858,96.1476 222.525,90.9809 224.5,83.5 Z"></path></g><g><path style="opacity:1" fill="#e73d3f" d="M 43.5,86.5 C 61.1698,86.3334 78.8365,86.5001 96.5,87C 102.319,90.0983 102.986,94.0983 98.5,99C 79.8333,99.6667 61.1667,99.6667 42.5,99C 38.3794,94.5367 38.7127,90.3701 43.5,86.5 Z"></path></g><g><path style="opacity:1" fill="#e73d3f" d="M 45.5,119.5 C 54.5062,119.334 63.5062,119.5 72.5,120C 78.2524,123.181 78.9191,127.181 74.5,132C 64.5,132.667 54.5,132.667 44.5,132C 39.1483,127.522 39.4816,123.355 45.5,119.5 Z"></path></g></svg>