<svg xmlns="http://www.w3.org/2000/svg" width="762.425" height="464" viewBox="0 0 762.425 464">
  <g id="Group_42331" data-name="Group 42331" transform="translate(-15.63 -38.587)">
    <g id="Group_42305" data-name="Group 42305" transform="translate(20.468 41.384)">
      <g id="Group_42300" data-name="Group 42300" transform="translate(0 95.212)">
        <path id="Path_30932" data-name="Path 30932" d="M94.5,121.832a95.421,95.421,0,0,0-10.241,2.792c-1.794.6-3.553,1.253-5.286,1.947l.172,18.4A77.015,77.015,0,0,0,61.207,157.5l-17.231-6.488a94.73,94.73,0,0,0-9.77,12.96l10.968,14.8a77.858,77.858,0,0,0-7.15,20.667l-17.769,4.883a93.685,93.685,0,0,0-.3,16.218l17.582,5.531A77.8,77.8,0,0,0,43.922,247l-11.51,14.4A93.657,93.657,0,0,0,41.7,274.7l17.472-5.859A77.663,77.663,0,0,0,76.637,282l-.847,18.4a94.831,94.831,0,0,0,15.338,5.311l10.686-15a76.98,76.98,0,0,0,21.877.4l10.122,15.372a95.451,95.451,0,0,0,10.242-2.792c1.793-.6,3.553-1.253,5.286-1.947l-.173-18.4a76.99,76.99,0,0,0,17.938-12.527l17.232,6.488a94.626,94.626,0,0,0,9.769-12.96l-10.967-14.8a77.813,77.813,0,0,0,7.149-20.667l17.77-4.883a93.566,93.566,0,0,0,.3-16.218l-17.582-5.531a77.865,77.865,0,0,0-6.381-20.919l11.509-14.4a93.651,93.651,0,0,0-9.287-13.3l-17.473,5.859a77.656,77.656,0,0,0-17.464-13.166l.845-18.4a94.827,94.827,0,0,0-15.338-5.311l-10.685,15a76.937,76.937,0,0,0-21.877-.4Zm54.773,80.6a37.023,37.023,0,1,1-46.844-23.391A37.023,37.023,0,0,1,149.274,202.432Z" transform="translate(-19.739 -121.832)" fill="#9bc1f9" opacity="0.6"/>
        <g id="Group_42297" data-name="Group 42297" transform="translate(53.715 25.77)">
          <path id="Path_30933" data-name="Path 30933" d="M130.123,149.006a1.384,1.384,0,0,1-1.816,1.727,62.638,62.638,0,0,0-60.719,8.639,1.383,1.383,0,1,1-1.684-2.2,65.4,65.4,0,0,1,63.407-9.023A1.382,1.382,0,0,1,130.123,149.006Z" transform="translate(-65.363 -143.72)" fill="#fff"/>
        </g>
        <g id="Group_42298" data-name="Group 42298" transform="translate(28.701 62.871)">
          <path id="Path_30934" data-name="Path 30934" d="M52.7,176.179a1.386,1.386,0,0,1-.057,1.018,62.159,62.159,0,0,0-5.763,24.62,1.384,1.384,0,0,1-2.767-.072,64.936,64.936,0,0,1,6.018-25.71,1.384,1.384,0,0,1,2.569.144Z" transform="translate(-44.117 -175.232)" fill="#fff"/>
        </g>
        <g id="Group_42299" data-name="Group 42299" transform="translate(31.987 109.922)">
          <path id="Path_30935" data-name="Path 30935" d="M56.416,230.411a1.384,1.384,0,0,1-2.478,1.183,65.516,65.516,0,0,1-6.958-14.577,1.384,1.384,0,0,1,2.626-.877A62.773,62.773,0,0,0,56.268,230.1,1.359,1.359,0,0,1,56.416,230.411Z" transform="translate(-46.908 -215.195)" fill="#fff"/>
        </g>
      </g>
      <g id="Group_42304" data-name="Group 42304" transform="translate(531.64)">
        <path id="Path_30936" data-name="Path 30936" d="M615.49,110.7a72.684,72.684,0,0,0-.673-8.083c-.2-1.43-.446-2.843-.726-4.242l-13.852-2.431a58.867,58.867,0,0,0-6.917-15.22l7.271-12.043a72.274,72.274,0,0,0-8.378-9.142l-12.647,6.181a59.492,59.492,0,0,0-14.533-8.246l-1.2-14.029a71.591,71.591,0,0,0-12.143-2.48l-6.6,12.44a59.452,59.452,0,0,0-16.6,1.885l-9.219-10.649a71.532,71.532,0,0,0-11.284,5.127l1.972,13.942A59.378,59.378,0,0,0,497.636,75L483.93,71.8a72.492,72.492,0,0,0-6.123,10.785L487.591,92.7a58.818,58.818,0,0,0-3.345,16.381l-12.956,5.466a72.935,72.935,0,0,0,.672,8.083q.3,2.148.728,4.242l13.852,2.431a58.831,58.831,0,0,0,6.917,15.22l-7.271,12.043a72.368,72.368,0,0,0,8.378,9.143l12.647-6.182a59.431,59.431,0,0,0,14.533,8.246l1.2,14.031a71.564,71.564,0,0,0,12.143,2.478l6.6-12.44a59.451,59.451,0,0,0,16.6-1.885l9.218,10.65a71.6,71.6,0,0,0,11.284-5.129l-1.971-13.942a59.371,59.371,0,0,0,12.321-11.29l13.7,3.194a72.227,72.227,0,0,0,6.123-10.785l-9.783-10.114a58.825,58.825,0,0,0,3.345-16.381ZM547.316,140.64A28.289,28.289,0,1,1,571.4,108.7,28.29,28.29,0,0,1,547.316,140.64Z" transform="translate(-471.29 -40.963)" fill="#9bc1f9" opacity="0.6"/>
        <g id="Group_42301" data-name="Group 42301" transform="translate(113.114 47.828)">
          <path id="Path_30937" data-name="Path 30937" d="M569.1,132.481a1.525,1.525,0,0,1-1.508-2.315A47.4,47.4,0,0,0,569.528,83.8a1.526,1.526,0,0,1,2.721-1.385,50.446,50.446,0,0,1-2.06,49.354A1.521,1.521,0,0,1,569.1,132.481Z" transform="translate(-567.364 -81.586)" fill="#fff"/>
        </g>
        <g id="Group_42302" data-name="Group 42302" transform="translate(81.705 22.205)">
          <path id="Path_30938" data-name="Path 30938" d="M560.513,70.787a1.519,1.519,0,0,1-1.094-.265A47.021,47.021,0,0,0,541.9,62.843a1.527,1.527,0,0,1,.633-2.987,50.079,50.079,0,0,1,18.653,8.173,1.526,1.526,0,0,1-.67,2.757Z" transform="translate(-540.686 -59.823)" fill="#fff"/>
        </g>
        <g id="Group_42303" data-name="Group 42303" transform="translate(53.136 21.631)">
          <path id="Path_30939" data-name="Path 30939" d="M518.159,65.506a1.527,1.527,0,0,1-.786-2.926A50.565,50.565,0,0,1,529.4,59.35a1.526,1.526,0,0,1,.423,3.023,47.436,47.436,0,0,0-11.3,3.034A1.526,1.526,0,0,1,518.159,65.506Z" transform="translate(-516.421 -59.335)" fill="#fff"/>
        </g>
      </g>
      <path id="Path_30940" data-name="Path 30940" d="M656.374,194.186c.091-.71.159-1.418.21-2.123l9.935-6.1a48.405,48.405,0,0,0-1.963-10.773l-11.53-2.357a39.016,39.016,0,0,0-8.721-11.97l1.433-11.606a48.388,48.388,0,0,0-9.817-5.291l-9.042,7.554a39.022,39.022,0,0,0-14.449-.692l-8.207-8.383a48.673,48.673,0,0,0-10.36,4.372l.267,11.719a38.917,38.917,0,0,0-9.632,10.829l-11.684,1.191a48.729,48.729,0,0,0-3.064,10.728l9.264,7.048a38.56,38.56,0,0,0,2.484,14.669l-6.335,9.849a49.06,49.06,0,0,0,6.34,8.936l11.252-2.84a38.587,38.587,0,0,0,13.422,7.4l3.733,11.044c.6.1,1.2.19,1.808.267a49,49,0,0,0,8.968.311l4.8-10.586a38.81,38.81,0,0,0,14.281-6.034l10.945,3.961a48.837,48.837,0,0,0,7.127-8.1l-5.313-10.42A38.775,38.775,0,0,0,656.374,194.186Zm-41.105,12.035a16.358,16.358,0,1,1,18.287-14.17A16.357,16.357,0,0,1,615.269,206.221Z" transform="translate(77.813 -22.963)" fill="#9bc1f9" opacity="0.6"/>
    </g>
    <path id="Path_30941" data-name="Path 30941" d="M121.66,499.922s-51.421,3.579-84.939-51.4c-53.4-87.588,4.79-163.379,61.577-166.266,123.752-6.291,76.06-296.117,269.134-229.3,54.289,18.79,219.918-87.351,260.827,91.618,9.729,42.557,20,53.2,87.349,78.33,99.566,37.156,60.027,277.9-9.94,278.8S121.66,499.922,121.66,499.922Z" transform="translate(0 0)" fill="#ebf2f9"/>
    <g id="Group_42322" data-name="Group 42322" transform="translate(136.229 71.347)">
      <path id="Path_30942" data-name="Path 30942" d="M610.358,66.412H132.949A14.887,14.887,0,0,0,118.061,81.3V418.506a14.888,14.888,0,0,0,14.868,14.907H316.185s11.665,45.087-24.475,63.735H463.05s-40.8-23.033-30.314-63.735h177.6a14.908,14.908,0,0,0,14.908-14.907h0V81.308a14.887,14.887,0,0,0-14.878-14.9Z" transform="translate(-118.061 -66.412)" fill="#233862"/>
      <path id="Path_30943" data-name="Path 30943" d="M341.282,348.439c6.493,9.279-3.675,19.447-12.953,12.953a3.4,3.4,0,0,1-.8-.8c-6.481-9.279,3.676-19.435,12.955-12.953A3.412,3.412,0,0,1,341.282,348.439Z" transform="translate(-81.272 -16.896)" fill="#99bbeb"/>
      <path id="Path_30944" data-name="Path 30944" d="M135.971,71.671h465.57A15.962,15.962,0,0,1,617.5,87.634v283.16H125.031V82.612A10.941,10.941,0,0,1,135.971,71.671Z" transform="translate(-116.825 -65.479)" fill="#fafafa"/>
      <path id="Path_30945" data-name="Path 30945" d="M586.709,378.261c0,.155-98.091.29-219.057.29s-219.08-.134-219.08-.29,98.069-.288,219.08-.288S586.709,378.106,586.709,378.261Z" transform="translate(-112.649 -11.152)" fill="#ebf3fa"/>
      <g id="Group_42321" data-name="Group 42321" transform="translate(67.854 29.808)">
        <g id="Group_42310" data-name="Group 42310" transform="translate(0 34.223)">
          <rect id="Rectangle_40282" data-name="Rectangle 40282" width="114.144" height="187.089" fill="#9ec8ff"/>
          <rect id="Rectangle_40283" data-name="Rectangle 40283" width="104.414" height="176.147" transform="translate(5.978 3.812)" fill="#fff"/>
          <g id="Group_42309" data-name="Group 42309" transform="translate(12.029 10.973)">
            <g id="Group_42306" data-name="Group 42306" transform="translate(25.18 10.814)">
              <path id="Path_30946" data-name="Path 30946" d="M207.3,185.71c3.93-8.453,10.581-11.161,21.5-11.161,13.005,0,19.758,4.711,21.673,11.57C227.184,186.438,207.3,185.71,207.3,185.71Z" transform="translate(-207.297 -133.05)" fill="#9bd6e8"/>
              <path id="Path_30947" data-name="Path 30947" d="M224.18,139.68c-5.505,1.546-5.264,4.64-7.1,7.51s-5.822,4.786-6.3,6.7,1.228,5.9-.8,8.136-2.711,3.35-1.914,5.583,2.553,5.742,2.713,6.221,2.392,3.829,5.1,4.307,7.817,1.276,10.369,2.392,10.759-1.429,15.314-1.269,7.656-3.2,7.337-5.43,3.359-6.7,3.351-10.528c-.011-4.111-4.786-7.178-6.062-9.891s.16-7.5-4.626-10.331c-3.025-1.792-5.105-1.632-7.5-2.43S227.689,138.7,224.18,139.68Z" transform="translate(-207.218 -139.302)" fill="#3a384d"/>
              <path id="Path_30948" data-name="Path 30948" d="M228.4,184.414c-1.244,1.838-2.158,1.914-3.51,0-1.074-1.522-3.189-4.98-3.189-6.735V160.168a3.2,3.2,0,0,1,3.189-3.191h3.51a3.2,3.2,0,0,1,3.191,3.191V177.68C231.594,179.434,229.521,182.766,228.4,184.414Z" transform="translate(-204.742 -136.167)" fill="#f09959"/>
              <path id="Path_30949" data-name="Path 30949" d="M228.4,156.977h-3.51a3.2,3.2,0,0,0-3.189,3.191v15.625c3.939,1.254,7.536-1.24,9.89-4.049V160.168A3.2,3.2,0,0,0,228.4,156.977Z" transform="translate(-204.742 -136.167)" fill="#e38540"/>
              <ellipse id="Ellipse_489" data-name="Ellipse 489" cx="10.608" cy="14.454" rx="10.608" ry="14.454" transform="translate(11.299 6.533)" fill="#f09959"/>
              <path id="Path_30950" data-name="Path 30950" d="M232.6,148.217c-6.7,11.326-16.59,10.209-16.59,10.209s.239-14.994,8.1-15.792,12.482,2.356,14.078,7.559,0,8.632,0,8.632a13.765,13.765,0,0,1-3.829-5.184A37.181,37.181,0,0,1,232.6,148.217Z" transform="translate(-205.751 -138.733)" fill="#3a384d"/>
              <ellipse id="Ellipse_490" data-name="Ellipse 490" cx="2.792" cy="4.187" rx="2.792" ry="4.187" transform="translate(5.545 19.378) rotate(-25.405)" fill="#f09959"/>
              <path id="Path_30951" data-name="Path 30951" d="M233.672,157.355c-.993,2.09-.668,4.319.725,4.98s3.326-.5,4.317-2.584.668-4.319-.724-4.98S234.664,155.267,233.672,157.355Z" transform="translate(-202.721 -136.591)" fill="#f09959"/>
              <path id="Path_30952" data-name="Path 30952" d="M230.492,163.786s-1.785,2.315-3.988,2.315-3.988-2.315-3.988-2.315Z" transform="translate(-204.598 -134.959)" fill="#fff"/>
            </g>
            <path id="Path_30953" data-name="Path 30953" d="M241.134,204.444H214.345a3.115,3.115,0,1,1,0-6.231h26.789a3.115,3.115,0,0,1,0,6.231Z" transform="translate(-181.419 -118.039)" fill="#99bbeb"/>
            <path id="Path_30954" data-name="Path 30954" d="M246.778,212.573h-36.6a3.115,3.115,0,1,1,0-6.231h36.6a3.115,3.115,0,0,1,0,6.231Z" transform="translate(-182.158 -116.597)" fill="#99bbeb"/>
            <path id="Path_30955" data-name="Path 30955" d="M276.744,241.412H187.717a1.807,1.807,0,1,1,0-3.614h89.026a1.807,1.807,0,0,1,0,3.614Z" transform="translate(-185.91 -111.018)" fill="#99bbeb"/>
            <path id="Path_30956" data-name="Path 30956" d="M276.744,248.549H187.717a1.808,1.808,0,0,1,0-3.616h89.026a1.808,1.808,0,0,1,0,3.616Z" transform="translate(-185.91 -109.753)" fill="#99bbeb"/>
            <path id="Path_30957" data-name="Path 30957" d="M276.744,255.684H187.717a1.808,1.808,0,0,1,0-3.616h89.026a1.808,1.808,0,0,1,0,3.616Z" transform="translate(-185.91 -108.487)" fill="#99bbeb"/>
            <g id="Group_42307" data-name="Group 42307" transform="translate(11.032)">
              <path id="Path_30958" data-name="Path 30958" d="M262.63,195.669H198.507a3.231,3.231,0,0,1-3.227-3.227v-59.1a3.231,3.231,0,0,1,3.227-3.227H262.63a3.23,3.23,0,0,1,3.227,3.227v59.1A3.23,3.23,0,0,1,262.63,195.669Zm-64.123-62.927a.61.61,0,0,0-.6.6v59.1a.61.61,0,0,0,.6.6H262.63a.61.61,0,0,0,.6-.6v-59.1a.61.61,0,0,0-.6-.6Z" transform="translate(-195.28 -130.117)" fill="#99bbeb"/>
            </g>
            <g id="Group_42308" data-name="Group 42308" transform="translate(17.504 104.101)">
              <path id="Path_30959" data-name="Path 30959" d="M206.785,218.536l1.856,3.762,4.151.6-3,2.928.709,4.134-3.713-1.952-3.713,1.952.709-4.134-3-2.928,4.151-.6Z" transform="translate(-200.777 -218.536)" fill="#99bbeb"/>
              <path id="Path_30960" data-name="Path 30960" d="M219.7,218.536l1.856,3.762,4.151.6-3,2.928.709,4.134-3.713-1.952-3.713,1.952.709-4.134-3-2.928,4.151-.6Z" transform="translate(-198.487 -218.536)" fill="#99bbeb"/>
              <path id="Path_30961" data-name="Path 30961" d="M232.615,218.536l1.856,3.762,4.151.6-3,2.928.709,4.134-3.713-1.952-3.713,1.952.709-4.134-3-2.928,4.151-.6Z" transform="translate(-196.196 -218.536)" fill="#99bbeb"/>
              <path id="Path_30962" data-name="Path 30962" d="M245.53,218.536l1.856,3.762,4.151.6-3,2.928.709,4.134-3.713-1.952-3.713,1.952.709-4.134-3-2.928,4.151-.6Z" transform="translate(-193.905 -218.536)" fill="#99bbeb"/>
            </g>
          </g>
        </g>
        <g id="Group_42315" data-name="Group 42315" transform="translate(254.472 34.223)">
          <rect id="Rectangle_40284" data-name="Rectangle 40284" width="114.144" height="187.089" fill="#9ec8ff"/>
          <rect id="Rectangle_40285" data-name="Rectangle 40285" width="104.414" height="176.147" transform="translate(5.978 3.812)" fill="#fff"/>
          <g id="Group_42314" data-name="Group 42314" transform="translate(12.029 10.973)">
            <g id="Group_42311" data-name="Group 42311" transform="translate(25.18 11.938)">
              <path id="Path_30963" data-name="Path 30963" d="M427.646,156.317c0,8.38,5.046,21.9,16.948,21.467s14.535-13.322,14.995-16.959S427.646,156.317,427.646,156.317Z" transform="translate(-422.687 -137.409)" fill="#7a4e34"/>
              <path id="Path_30964" data-name="Path 30964" d="M423.434,185.71c3.93-8.453,10.581-11.161,21.5-11.161,13.005,0,19.759,4.711,21.673,11.57C443.321,186.438,423.434,185.71,423.434,185.71Z" transform="translate(-423.434 -134.175)" fill="#d54a41"/>
              <path id="Path_30965" data-name="Path 30965" d="M444.54,184.414c-1.245,1.838-2.158,1.914-3.51,0-1.074-1.522-3.189-4.98-3.189-6.735V160.168a3.2,3.2,0,0,1,3.189-3.191h3.51a3.2,3.2,0,0,1,3.191,3.191V177.68C447.731,179.434,445.658,182.766,444.54,184.414Z" transform="translate(-420.879 -137.291)" fill="#f09959"/>
              <path id="Path_30966" data-name="Path 30966" d="M444.54,156.977h-3.51a3.2,3.2,0,0,0-3.189,3.191v15.625c3.941,1.254,7.536-1.24,9.89-4.049V160.168A3.2,3.2,0,0,0,444.54,156.977Z" transform="translate(-420.879 -137.291)" fill="#e38540"/>
              <ellipse id="Ellipse_491" data-name="Ellipse 491" cx="10.608" cy="14.454" rx="10.608" ry="14.454" transform="translate(11.299 5.408)" fill="#f09959"/>
              <path id="Path_30967" data-name="Path 30967" d="M450.43,149.133c-1.26,4.446-4.023,4.394-7.874,5.854s-5.694,2.928-6.954,5.771c-1.607,3.626.73,14.2.73,14.2s-9.753-7.3-8.625-18.777,7.9-15.924,14.265-15.924,8.79,3.882,8.79,3.882,3.393.014,6.6,3.815c4.313,5.109,2.985,17.516,0,21.961s-4.977,5.839-4.911,5.64,2.787-10.408,1.328-16.72A40.32,40.32,0,0,0,450.43,149.133Z" transform="translate(-422.692 -140.257)" fill="#7a4e34"/>
              <path id="Path_30968" data-name="Path 30968" d="M446.629,163.786s-1.785,2.315-3.988,2.315-3.988-2.315-3.988-2.315Z" transform="translate(-420.734 -136.084)" fill="#fff"/>
            </g>
            <path id="Path_30969" data-name="Path 30969" d="M457.271,204.444H430.482a3.115,3.115,0,1,1,0-6.231h26.789a3.115,3.115,0,0,1,0,6.231Z" transform="translate(-397.556 -118.039)" fill="#99bbeb"/>
            <path id="Path_30970" data-name="Path 30970" d="M462.915,212.573h-36.6a3.115,3.115,0,0,1,0-6.231h36.6a3.115,3.115,0,0,1,0,6.231Z" transform="translate(-398.295 -116.597)" fill="#99bbeb"/>
            <path id="Path_30971" data-name="Path 30971" d="M492.881,241.412H403.854a1.807,1.807,0,1,1,0-3.614h89.026a1.807,1.807,0,1,1,0,3.614Z" transform="translate(-402.047 -111.018)" fill="#99bbeb"/>
            <path id="Path_30972" data-name="Path 30972" d="M492.881,248.549H403.854a1.808,1.808,0,0,1,0-3.616h89.026a1.808,1.808,0,0,1,0,3.616Z" transform="translate(-402.047 -109.753)" fill="#99bbeb"/>
            <path id="Path_30973" data-name="Path 30973" d="M492.881,255.684H403.854a1.808,1.808,0,0,1,0-3.616h89.026a1.808,1.808,0,0,1,0,3.616Z" transform="translate(-402.047 -108.487)" fill="#99bbeb"/>
            <g id="Group_42312" data-name="Group 42312" transform="translate(11.032)">
              <path id="Path_30974" data-name="Path 30974" d="M478.767,195.669H414.644a3.231,3.231,0,0,1-3.227-3.227v-59.1a3.231,3.231,0,0,1,3.227-3.227h64.123a3.23,3.23,0,0,1,3.227,3.227v59.1A3.23,3.23,0,0,1,478.767,195.669Zm-64.123-62.927a.61.61,0,0,0-.6.6v59.1a.61.61,0,0,0,.6.6h64.123a.61.61,0,0,0,.6-.6v-59.1a.61.61,0,0,0-.6-.6Z" transform="translate(-411.417 -130.117)" fill="#99bbeb"/>
            </g>
            <g id="Group_42313" data-name="Group 42313" transform="translate(17.504 104.101)">
              <path id="Path_30975" data-name="Path 30975" d="M422.922,218.536l1.856,3.762,4.151.6-3,2.928.709,4.134-3.713-1.952-3.713,1.952.709-4.134-3-2.928,4.151-.6Z" transform="translate(-416.914 -218.536)" fill="#99bbeb"/>
              <path id="Path_30976" data-name="Path 30976" d="M435.837,218.536l1.856,3.762,4.151.6-3,2.928.709,4.134-3.713-1.952-3.713,1.952.709-4.134-3-2.928,4.151-.6Z" transform="translate(-414.624 -218.536)" fill="#99bbeb"/>
              <path id="Path_30977" data-name="Path 30977" d="M448.752,218.536l1.856,3.762,4.151.6-3,2.928.709,4.134-3.713-1.952-3.713,1.952.709-4.134-3-2.928,4.151-.6Z" transform="translate(-412.333 -218.536)" fill="#99bbeb"/>
              <path id="Path_30978" data-name="Path 30978" d="M461.667,218.536l1.857,3.762,4.151.6-3,2.928.709,4.134-3.713-1.952-3.713,1.952.709-4.134-3-2.928,4.151-.6Z" transform="translate(-410.042 -218.536)" fill="#99bbeb"/>
            </g>
          </g>
        </g>
        <g id="Group_42320" data-name="Group 42320" transform="translate(106.088)">
          <rect id="Rectangle_40286" data-name="Rectangle 40286" width="155.904" height="255.535" fill="#2b478b"/>
          <rect id="Rectangle_40287" data-name="Rectangle 40287" width="142.614" height="240.589" transform="translate(8.165 5.207)" fill="#fff"/>
          <g id="Group_42319" data-name="Group 42319" transform="translate(16.43 15.467)">
            <g id="Group_42316" data-name="Group 42316" transform="translate(32.591 11.116)">
              <path id="Path_30979" data-name="Path 30979" d="M322.447,143.467c-.1-.3-2.6-14.63-2.894-20.2s8.956-6.368,8.956-6.368,7.565-4.081,13.038-1.991a22.065,22.065,0,0,1,11.687,9.985c2.488,4.379-2.189,18.025-2.189,18.025Z" transform="translate(-305.287 -114.308)" fill="#2e2d3d"/>
              <path id="Path_30980" data-name="Path 30980" d="M307.436,181.395c-.034-.235.639-5.876.664-6.1,1.26-11.876,15.9-15.216,30.507-15.216,17.164,0,28.808,3.141,30.666,15.482.054.361,1.044,6.015.995,6.4C338.457,182.389,307.436,181.395,307.436,181.395Z" transform="translate(-307.435 -106.191)" fill="#d5e1e8"/>
              <path id="Path_30981" data-name="Path 30981" d="M338.1,173.549c-1.7,2.51-2.948,2.614-4.793,0-1.468-2.079-6.37-6.822-6.37-9.219l2.012-23.9a4.37,4.37,0,0,1,4.357-4.357H338.1a4.37,4.37,0,0,1,4.357,4.357l.934,23.9C343.388,166.728,339.621,171.3,338.1,173.549Z" transform="translate(-303.977 -110.448)" fill="#f09959"/>
              <path id="Path_30982" data-name="Path 30982" d="M338.057,136.074h-4.793a4.37,4.37,0,0,0-4.357,4.357l-1.747,21.2c5.383,1.713,12.651-1.77,15.865-5.607l-.61-15.6A4.37,4.37,0,0,0,338.057,136.074Z" transform="translate(-303.937 -110.448)" fill="#e38540"/>
              <path id="Path_30983" data-name="Path 30983" d="M320.407,161.623l7.685,14.2s4.114-3.384,4.512-2.72-.73,9.036-.73,9.036,9.156.124,9.554-.274-1.858-9.094-.929-9.094,3.723,2.521,3.723,2.521l8.579-13.673-1.886-.459-14.058,7.563-15.035-7.4Z" transform="translate(-305.134 -105.998)" fill="#bdccd4"/>
              <path id="Path_30984" data-name="Path 30984" d="M327.872,167.428l5.707,3.829-1.768,10.164,7.7-.429-1.922-9.245,4.73-4.319-2.222-2.094h-10Z" transform="translate(-303.81 -105.258)" fill="#d54a41"/>
              <path id="Path_30985" data-name="Path 30985" d="M328.335,155.742l-7.058,6.716s7.191,12.79,7.589,12.79,6.1-7.051,6.1-7.051l3.653-.064,5.769,6.054,6.705-11.861-6.837-7.248s-5.839,11.279-6.9,11.544-1.069.4-1.927-.265S328.335,155.742,328.335,155.742Z" transform="translate(-304.98 -107.077)" fill="#d5e1e8"/>
              <ellipse id="Ellipse_492" data-name="Ellipse 492" cx="14.489" cy="19.742" rx="14.489" ry="19.742" transform="translate(17.234 6.126)" fill="#f09959"/>
              <path id="Path_30986" data-name="Path 30986" d="M324.489,136.591c1.355,2.854.911,5.9-.99,6.8s-4.543-.677-5.9-3.53-.911-5.9.99-6.8S323.134,133.738,324.489,136.591Z" transform="translate(-305.771 -111.027)" fill="#f09959"/>
              <path id="Path_30987" data-name="Path 30987" d="M344.989,136.591c-1.356,2.854-.912,5.9.99,6.8s4.542-.677,5.9-3.53.911-5.9-.99-6.8S346.345,133.738,344.989,136.591Z" transform="translate(-300.913 -111.027)" fill="#f09959"/>
              <path id="Path_30988" data-name="Path 30988" d="M341.776,143.16s-2.879,4.661-6.428,4.661-6.427-4.661-6.427-4.661Z" transform="translate(-303.624 -109.191)" fill="#fff"/>
              <path id="Path_30989" data-name="Path 30989" d="M328.072,126.1c5.972-4.18,8.66-3.484,13.137,3.384s9.853,6.988,9.853,6.988l.7-7.121s-6.67-12.9-15.626-11.212-14.048,9.753-14.048,9.753-.436,15.109.814,15.625,1.393-4.877,2.289-5.972-.9-6.269.3-8.658S328.072,126.1,328.072,126.1Z" transform="translate(-304.85 -113.657)" fill="#2e2d3d"/>
              <path id="Path_30990" data-name="Path 30990" d="M343.474,131.466c2.084,2.283,1.293,11.346,2.388,11.246s1.493-8.658,1.2-9.554S343.474,131.466,343.474,131.466Z" transform="translate(-301.043 -111.265)" fill="#2e2d3d"/>
            </g>
            <path id="Path_30991" data-name="Path 30991" d="M372.42,205.978H305.867a4.255,4.255,0,0,1,0-8.51H372.42a4.255,4.255,0,1,1,0,8.51Z" transform="translate(-275.877 -88.443)" fill="#99bbeb"/>
            <path id="Path_30992" data-name="Path 30992" d="M362.891,217.08H312.9a4.254,4.254,0,1,1,0-8.509h49.989a4.254,4.254,0,0,1,0,8.509Z" transform="translate(-274.629 -86.474)" fill="#99bbeb"/>
            <path id="Path_30993" data-name="Path 30993" d="M403.819,256.472h-121.6a2.468,2.468,0,0,1,0-4.937h121.6a2.468,2.468,0,1,1,0,4.937Z" transform="translate(-279.754 -78.853)" fill="#99bbeb"/>
            <path id="Path_30994" data-name="Path 30994" d="M403.819,266.218h-121.6a2.469,2.469,0,0,1,0-4.938h121.6a2.469,2.469,0,1,1,0,4.938Z" transform="translate(-279.754 -77.125)" fill="#99bbeb"/>
            <path id="Path_30995" data-name="Path 30995" d="M403.819,275.964h-121.6a2.469,2.469,0,0,1,0-4.938h121.6a2.469,2.469,0,0,1,0,4.938Z" transform="translate(-279.754 -75.396)" fill="#99bbeb"/>
            <g id="Group_42317" data-name="Group 42317" transform="translate(15.548)">
              <path id="Path_30996" data-name="Path 30996" d="M384.469,193.441H296.887a3.931,3.931,0,0,1-3.927-3.928v-80.72a3.931,3.931,0,0,1,3.927-3.927h87.583a3.932,3.932,0,0,1,3.928,3.927v80.72A3.932,3.932,0,0,1,384.469,193.441Zm-87.583-85.949a1.3,1.3,0,0,0-1.3,1.3v80.72a1.3,1.3,0,0,0,1.3,1.3h87.583a1.3,1.3,0,0,0,1.3-1.3v-80.72a1.3,1.3,0,0,0-1.3-1.3Z" transform="translate(-292.96 -104.867)" fill="#99bbeb"/>
            </g>
            <g id="Group_42318" data-name="Group 42318" transform="translate(13.359 141.706)">
              <path id="Path_30997" data-name="Path 30997" d="M299.306,225.226l2.536,5.138,5.67.824-4.1,4,.969,5.647-5.071-2.666-5.071,2.666.969-5.647-4.1-4,5.67-.824Z" transform="translate(-291.1 -225.226)" fill="#f99746"/>
              <path id="Path_30998" data-name="Path 30998" d="M316.946,225.226l2.536,5.138,5.67.824-4.1,4,.969,5.647-5.071-2.666-5.071,2.666.969-5.647-4.1-4,5.67-.824Z" transform="translate(-287.972 -225.226)" fill="#f99746"/>
              <path id="Path_30999" data-name="Path 30999" d="M334.586,225.226l2.536,5.138,5.67.824-4.1,4,.969,5.647-5.071-2.666-5.071,2.666.969-5.647-4.1-4,5.67-.824Z" transform="translate(-284.843 -225.226)" fill="#f99746"/>
              <path id="Path_31000" data-name="Path 31000" d="M352.226,225.226l2.536,5.138,5.67.824-4.1,4,.969,5.647-5.071-2.666-5.071,2.666.969-5.647-4.1-4,5.67-.824Z" transform="translate(-281.714 -225.226)" fill="#f99746"/>
              <path id="Path_31001" data-name="Path 31001" d="M370.146,225.226l2.536,5.138,5.67.824-4.1,4,.968,5.647-5.071-2.666-5.071,2.666.968-5.647-4.1-4,5.67-.824Z" transform="translate(-278.536 -225.226)" fill="#f99746"/>
            </g>
          </g>
        </g>
      </g>
    </g>
    <g id="Group_42325" data-name="Group 42325" transform="translate(89.659 159.746)">
      <path id="Path_31002" data-name="Path 31002" d="M137.516,192.306s9.22,10.939,20.963,6.362c0,0,2.525-6.109,2.561-10.613,0-.553.012-1.091.02-1.6.062-5.072.234-7.918.234-7.918l-.013,0c-.533-.223-17.949-7.373-17.935-6.779C143.645,185.472,137.516,192.306,137.516,192.306Z" transform="translate(-68.041 -136.133)" fill="#ffb27d"/>
      <path id="Path_31003" data-name="Path 31003" d="M143.955,174.547c1.68,3.113,7.442,9.2,15.965,11.429.062-5.072.234-7.918.234-7.918l-.013,0C159.66,177.926,143.456,173.63,143.955,174.547Z" transform="translate(-66.901 -135.654)" fill="#ed975d"/>
      <path id="Path_31004" data-name="Path 31004" d="M164.61,181.926s-19.585,4.6-22.265-7.636-7.012-19.892,5.379-23.348,15.852.679,17.741,4.548S169.637,180.412,164.61,181.926Z" transform="translate(-67.711 -140.048)" fill="#ffb27d"/>
      <path id="Path_31005" data-name="Path 31005" d="M144.52,179.07c-.268.172-4.482,1.466-12.464-14.432a13.846,13.846,0,0,1,.815-12.666c2.92-4.771,13.275-8.522,21.879-10.155s10.668,3.21,12.694,8.074c2.128,5.107,8.27,9.313,8.27,9.313-7.42,4.144-16.355-1.784-19.451-.809s-4.189,5.854-4.421,7.417-.59,2.863-4.482,1.467-1.76,5.516-1.136,6.838C146.224,174.118,146.752,177.639,144.52,179.07Z" transform="translate(-69.215 -141.494)" fill="#a9453d"/>
      <g id="Group_42323" data-name="Group 42323" transform="translate(0 150.368)">
        <path id="Path_31006" data-name="Path 31006" d="M103.359,437.1H91.5c-2.487,0-5.249-2.489-5.94-7.047s-5.8-7.047-6.909-10.778,4.561-8.982,4.561-8.982l.947-1.217.985-1.269,9.394,2.21s.232,2.237.377,5.086c.1,2.057.155,4.435.039,6.52-.277,4.976,1.393,10.331,5.811,11.3S103.359,437.1,103.359,437.1Z" transform="translate(-78.507 -244.628)" fill="#2c3a64"/>
        <path id="Path_31007" data-name="Path 31007" d="M174.8,435.266H143.362a2.83,2.83,0,0,1-.668-.194c-2.1-1.05-1.442-9.086-1.189-11.569.048-.459.082-.729.082-.729s11.054-8.841,12.575-2.072c.048.212.1.419.162.623v0c1.919,6.334,10.5,9.211,15.452,10.013C173.564,431.958,174.545,434.163,174.8,435.266Z" transform="translate(-67.387 -242.793)" fill="#2c3a64"/>
        <path id="Path_31008" data-name="Path 31008" d="M171.422,279.152s-1.679,20.945-3.652,46.123c-2.682,34.2-5.907,76.212-6.226,84.171-.551,13.82-2.764,35.926-2.764,35.926s-5.249,5.251-15.752,3.038c0,0-9.36-31.557-12.034-64.946-.041-.546-.082-1.1-.124-1.649-2.488-33.989-6.354-105.564-6.354-105.564Z" transform="translate(-70.347 -267.961)" fill="#2b478b"/>
        <path id="Path_31009" data-name="Path 31009" d="M171.422,279.152s-1.679,20.945-3.652,46.123l-36.776,58.189c-.041-.546-.082-1.1-.124-1.649-2.488-33.989-6.354-105.564-6.354-105.564Z" transform="translate(-70.347 -267.961)" fill="#233862"/>
        <path id="Path_31010" data-name="Path 31010" d="M171.207,282.889s-30.259,75.855-50.156,111.5-26.115,45.6-26.115,45.6-11.4-4.56-12.435-7.668c0,0,7.609-68.82,20.934-85.6,7.529-9.48,16.374-37.929,16.788-47.876s2.694-29.638,2.694-29.638Z" transform="translate(-77.799 -269.21)" fill="#2b478b"/>
      </g>
      <g id="Group_42324" data-name="Group 42324" transform="translate(14.237 57.385)">
        <path id="Path_31011" data-name="Path 31011" d="M100.763,269.391l-.32,4.879a10.512,10.512,0,0,1-5.8,13.112s-3.858,1.556-4.015-1.448.337-1.874.024-6.1S92,271.6,94.8,270.255l2.3-2.649Z" transform="translate(-90.599 -176.511)" fill="#ffb27d"/>
        <path id="Path_31012" data-name="Path 31012" d="M96.869,286.666c3.35,1.075,3.886.832,3.886.832s16.3-29.679,17.952-32.4S153.32,221.82,153.32,221.82l-8.471-31.586s-37.488,48.546-41.536,55.512C96.622,257.257,92.7,283.991,92.7,283.991A9.809,9.809,0,0,0,96.869,286.666Z" transform="translate(-90.226 -190.234)" fill="#ed7d2b"/>
      </g>
      <path id="Path_31013" data-name="Path 31013" d="M118.168,297.23c8.284,4.893,16.1,8.524,25.181,10.44,10.76,2.342,23.9,1.342,28.309,1.9a1.893,1.893,0,0,0,1.289-.329c.323-.2,2.055-13.476,3.706-30.271.045-.387.088-.795.12-1.2.022-.273.038-.545.045-.808l.028-.238c.18-1.744.354-3.523.516-5.321.4-4.482.757-9.082,1.083-13.672.032-.437.062-.877.092-1.317.51-7.4.885-14.7,1-21.183,0-.155.006-.311.006-.465a140.177,140.177,0,0,0-.347-14.144c-.071-.814-.152-1.576-.251-2.295-1.285-9.737-6-16.588-10.423-21.731l-4.328-4.911c-4.153.364-7.748.513-11.8-2.089-4.393-2.817-7.231-5.47-8.12-4.973-6.8,3.978-14.164,13.763-17.855,27.046a150.513,150.513,0,0,0-4.388,23.674q-.526,4.881-.81,9.913a325.764,325.764,0,0,1-5.414,42.289c-.467,2.57-.838,4.612-1.041,6.027C114.563,294.855,117.07,296.578,118.168,297.23Z" transform="translate(-72.078 -133.855)" fill="#f99746"/>
      <path id="Path_31014" data-name="Path 31014" d="M144.188,208.853s3.7,40.908,27.365,64.6c.022-.273.038-.545.045-.808l.028-.238c.18-1.744.354-3.523.516-5.321.4-4.482.757-9.082,1.083-13.672.032-.437.062-.877.092-1.317.51-7.4.885-14.7,1-21.183,0-.155.006-.311.006-.465-.047-3.878-.161-7.414-.347-10.52C166.4,213.886,156.566,209.659,144.188,208.853Z" transform="translate(-66.858 -129.547)" fill="#ed7d2b"/>
      <path id="Path_31015" data-name="Path 31015" d="M221.878,232.724c.022-1.894,5.019-6.273,5.351-5.746.238.38-.279,2.37-.558,3.207,2.076-1.389,2.549-6.3,6.054-8.49.971-.607,4.43,8.883,1.151,12.326s-4.854,3.06-10.314,6.247l-3.956.265-1.953-6.148S219.763,233.612,221.878,232.724Z" transform="translate(-53.828 -127.274)" fill="#ffb27d"/>
      <path id="Path_31016" data-name="Path 31016" d="M238.591,242.55c.26-3.731-4.661-5.89-4.661-5.89s-37.49,3.909-40.716,2.894S165.9,203.963,165.9,203.963s-10.57-11.92-19.225-9.288c-7.52,2.288-10.46,8.154-11.462,13.743a16.466,16.466,0,0,0,7.645,16.9c12.946,7.94,35.591,29.826,41.7,31.616,13.586,3.983,52.388-9.035,52.388-9.035A13.432,13.432,0,0,0,238.591,242.55Z" transform="translate(-68.495 -132.129)" fill="#f99746"/>
    </g>
    <g id="Group_42326" data-name="Group 42326" transform="translate(650.159 358.066)">
      <path id="Path_31017" data-name="Path 31017" d="M601.719,336.264c7.742,7.068,4.376,14.137-1.346,27.264s-6.732,61.6-6.732,61.6l4.713-.673s-.673-49.815,5.722-63.28,9.087-20.2,14.81-15.819S601.719,336.264,601.719,336.264Z" transform="translate(-547.64 -305.268)" fill="#74b570"/>
      <path id="Path_31018" data-name="Path 31018" d="M596.953,331.782c.941-4.189,6.524-8.722,13.991-12.567-1.11,6.179-4.669,16.281-.987,18.353,4.969,2.794.485-11.31,2.4-19.062a92.2,92.2,0,0,1,23.211-7.614c-.011.028-.019.055-.031.085-4.376,11.107-10.1,15.484-7.742,17.166,1.773,1.266,7.547-11.564,15.17-18.141,5.723-.306,10.564.471,13.429,2.737,4.427,3.505,7.4,6.614,2.946,17.286a20,20,0,0,1-9.666,3.5c-10.1,1.01-14.81,1.347-7.742,4.713,3.461,1.648,9.264-.093,13.968-1.154-1.527,2.812-3.4,6-5.682,9.619a35.759,35.759,0,0,1-4.731,6.021c-3.254.624-6.092.631-7.594-.013-4.712-2.019-16.829-8.415-19.859-5.722-2.966,2.635,22.441,4.3,20.68,11-12.314,7.095-26.406,3.718-28.9-2.8C606.474,346.449,594.123,344.39,596.953,331.782Z" transform="translate(-547.127 -309.938)" fill="#9cd499"/>
      <path id="Path_31019" data-name="Path 31019" d="M624.252,369.79c-13.463-10.1-27.264-.673-34.332,10.1s-2.02,35.005-2.02,35.005,2.694,0,2.694-1.009-7.406-28.61,10.1-41.064c10.95-7.792,18.85-4.04,19.859-.337s-4.375,10.434-4.375,10.434Z" transform="translate(-548.968 -300.086)" fill="#74b570"/>
      <path id="Path_31020" data-name="Path 31020" d="M592.3,351.511c13.463,0,17.839,20.869,14.137,32.986s-8.751,34.669-8.751,34.669l-3.366-3.366s12.791-31.639,9.762-45.776S593.648,353.53,592.3,353.53,592.3,351.511,592.3,351.511Z" transform="translate(-547.984 -302.564)" fill="#9cd499"/>
      <path id="Path_31021" data-name="Path 31021" d="M602.312,380.056a9.757,9.757,0,0,1,3.544-2.978,26.761,26.761,0,0,1-.7,2.885c-1.687,5.521-3.653,13.206-5.295,19.94-.15-.862-.379-2.19-.733-4.241-.084-.484-.15-1.009-.2-1.566A130.461,130.461,0,0,0,602.312,380.056Z" transform="translate(-546.702 -298.03)" fill="#74b570"/>
      <path id="Path_31022" data-name="Path 31022" d="M605.978,382.552c25.582-10.771,12.1-25.551,34.656-15.79a16.755,16.755,0,0,1,5.463,4.812,16.779,16.779,0,0,1-7.146.573c-6.732-1.01-4.376,4.376,6.731,5.722a24.982,24.982,0,0,1,5.205,1.1c5.291,10.163,7.677,23.537-3.521,28.185a25.364,25.364,0,0,1-7.971,1.635c-3.456-2.747.844-18.639-4.483-16.445-5.116,2.106,1.6,13.624.682,16.527a73.8,73.8,0,0,1-15.979-2.241,7.958,7.958,0,0,1-4.226-4.861c-1.682-7.069,9.425-11.444,9.762-17.5.31-5.57-4.071,12.254-15.677,14.876C598.979,394.24,594.02,387.587,605.978,382.552Z" transform="translate(-546.687 -300.425)" fill="#9cd499"/>
      <path id="Path_31023" data-name="Path 31023" d="M595.634,367.194c2.693-5.722-4.376-7.068-4.04-2.693.3,3.877.332,13.3-3.645,15.869a62.388,62.388,0,0,1-23.242-7.719,2.866,2.866,0,0,1,.3-1.754c3.029-6.059,22.552-11.107,16.494-13.128-4.826-1.608-13.281,7.886-20.094,12.667-4.093-3.1-6.833-6.805-6.833-10.937,0-5.592,6.795-11.922,15.581-14.948,3.955.4,7.628,2.561,13.365,5.813,8.476,4.8,6.516-2.962-1.5-7.572a24.137,24.137,0,0,1,18.9,10.376s-.482,3.019,2.714,7.687c8.715,12.738-1.343,20.174-13.367,19.691C590.949,377.19,593.774,371.147,595.634,367.194Z" transform="translate(-554.57 -304.11)" fill="#9cd499"/>
      <path id="Path_31024" data-name="Path 31024" d="M618.279,368.669c6.583,5.086,13.9,11.033,22.871,15.073s7.181,17.2,7.181,17.2,1.346-11.37-6.134-15.26-12.418-8.528-18.1-9.425a82.453,82.453,0,0,1-8.827-1.8s1.8-3.591.748-4.937S618.279,368.669,618.279,368.669Z" transform="translate(-543.804 -299.536)" fill="#74b570"/>
      <path id="Path_31025" data-name="Path 31025" d="M652.662,317.925c-24.087,6.432-41.74,21.841-45.031,25.582s-3.292,4.787-3.292,4.787l2.543,4.787,1.2-.6s-1.945-4.04,3.141-9.275c8.773-9.03,19.449-16.157,26.779-19.3S652.662,317.925,652.662,317.925Z" transform="translate(-545.742 -308.521)" fill="#74b570"/>
      <path id="Rectangle_40288" data-name="Rectangle 40288" d="M13.971,0h4.956A13.971,13.971,0,0,1,32.9,13.971v19.02a0,0,0,0,1,0,0H0a0,0,0,0,1,0,0V13.971A13.971,13.971,0,0,1,13.971,0Z" transform="translate(61.484 142.726) rotate(-180)" fill="#75a1de"/>
      <rect id="Rectangle_40289" data-name="Rectangle 40289" width="32.899" height="2.316" transform="translate(28.586 113.514)" fill="#fff"/>
      <rect id="Rectangle_40290" data-name="Rectangle 40290" width="32.899" height="1.362" transform="translate(28.586 117.737)" fill="#fff"/>
    </g>
    <g id="Group_42330" data-name="Group 42330" transform="translate(327.25 58.883)">
      <path id="Path_31026" data-name="Path 31026" d="M523.41,399.544l-5.056,21.3-7.574-.043-.278-21.253Z" transform="translate(-239.477 5.138)" fill="#e49963"/>
      <path id="Path_31027" data-name="Path 31027" d="M470.367,400.737l-14.387,20.388-5.607-7.2,8.659-15.992Z" transform="translate(-250.142 4.852)" fill="#e49963"/>
      <path id="Path_31028" data-name="Path 31028" d="M500.361,162.216a14.675,14.675,0,0,1,7.94-1.519,3.712,3.712,0,0,0-1.674-.795c1.359-.2,4.392,1.146,4.392,1.146,18.9-7.283,21.875,20.551,21.479,27.018s6.352,8.577,16.188,13.672c18.765,9.721,20.413,22.74,20.413,22.74-.146.086-.3.184-.461.3-.93-1.576-2.847-4.539-4.463-4.986a66.945,66.945,0,0,1,2.6,6.333c-5.536,4.211-15.892,13.542-23.11,20.158a10.621,10.621,0,0,0-.491-4.1l-.892,5.37c-3.862,3.551-6.525,6.049-6.525,6.049.477-5.225-23.634-32.8-36.215-41.062-3.062-4.508-4.15-12.472-4.231-13.1.529,6.315,1.608,9.857,2.574,11.851C487.229,201.484,493.431,166.154,500.361,162.216Z" transform="translate(-242.732 -37.377)" fill="#163560"/>
      <path id="Path_31029" data-name="Path 31029" d="M499.059,207.753c-.064.028,6.074,3.215,10.689,1.952,4.342-1.183,7.18-6.813,7.12-6.826-1.839-.365-2.369-2.892-2.33-13.75l-.831.165-13.978,2.767s.319,4.4.328,8.543C500.067,204.082,499.856,207.382,499.059,207.753Z" transform="translate(-241.507 -32.183)" fill="#e49963"/>
      <path id="Path_31030" data-name="Path 31030" d="M499.628,192.035s.319,4.4.328,8.543c7.821-.221,11.955-7.356,13.649-11.31Z" transform="translate(-241.406 -32.158)" fill="#d68d5d"/>
      <path id="Path_31031" data-name="Path 31031" d="M516.375,192.3s4.1-6.476,5.083-12.014c.7-3.954-1.312-18.608-16.038-16.5a20.013,20.013,0,0,0-8.3,3.136c-3.2,2.159-7.812,6.822-2.651,19.609l1.34,4.321Z" transform="translate(-242.732 -36.713)" fill="#163560"/>
      <path id="Path_31032" data-name="Path 31032" d="M452.312,430.92l7.409.227,8.02.245s18.523-20.623,28.914-53.684q.364-1.153.769-2.334c5.685-16.581,17.474-37.393,23.686-56.232.989-3,1.877-5.824,2.674-8.5.255-.856.5-1.7.739-2.524a199.707,199.707,0,0,0,7.125-37.51l-44.859.358S479.548,347.166,452.312,430.92Z" transform="translate(-249.798 -17.731)" fill="#2b478b"/>
      <path id="Path_31033" data-name="Path 31033" d="M487.909,257.779c.113,21.347-3.131,30.505-3.131,30.505a60.279,60.279,0,0,0,42.034,2.575c.268-.085,17.168-3.476,17.168-3.476-.382-.864-5.044-15.632-5.416-16.424-4.82-10.349-5.482-15.368-6.054-18.551a67.7,67.7,0,0,1-.555-17.884,143.538,143.538,0,0,1,5.535-28.085c-6.22-1.415-12.044-3.9-18.518-6.33-1.489,1.853-6.042,3.793-9.991,3.705-4.546-.1-6.021-2.046-5.786-4.171-4.845,2.7-8.711,5.243-8.711,5.243-4.118,7.154-12.471,14.1-13.076,25.074C481.261,232.66,487.907,257.181,487.909,257.779Z" transform="translate(-244.637 -30.317)" fill="#e7f1fd"/>
      <path id="Path_31034" data-name="Path 31034" d="M470.536,226.066c6.585-7.693,23.647-24.376,41.254-26.422l-15.194,29.6a13.094,13.094,0,0,1-5.352,8.028c-11.02,7.242-25.032,10.443-25.032,10.443s-9.49-4.14-22.461-13.644c-4.071-2.983-11.226-14.363-11.226-14.363l1.93-6.457S446.6,220.041,450.94,222c2.474,1.116,8.166,3.782,12.177,5.665A6.261,6.261,0,0,0,470.536,226.066Z" transform="translate(-253.307 -30.317)" fill="#699dee"/>
      <path id="Path_31035" data-name="Path 31035" d="M498.338,199.655s18.5.3,18.518-11.221,2.41-19.251-9.4-19.933-14.114,3.713-15.055,7.56S493.525,199.278,498.338,199.655Z" transform="translate(-242.728 -35.854)" fill="#e49963"/>
      <path id="Path_31036" data-name="Path 31036" d="M497.992,168.6s5.066,13.523,12.842,15.522,11.148-.084,11.148-.084a22.023,22.023,0,0,1-7.2-13.009S501.814,162.166,497.992,168.6Z" transform="translate(-241.696 -36.239)" fill="#163560"/>
      <path id="Path_31037" data-name="Path 31037" d="M500.469,169.514s-3.783,3.02-4.706,5.955-1.337,8.977-3.1,8.773c0,0-3.817-9.192.473-14.392C497.686,164.336,500.469,169.514,500.469,169.514Z" transform="translate(-242.918 -36.053)" fill="#163560"/>
      <path id="Path_31038" data-name="Path 31038" d="M436.59,212.436s-2.608-9.4-12.944-8.073c-1.187.371-4.653,1.753-2.437,5.464,1.633,2.735,2.341,1.325,4.908,5s5.357,4.506,8.543,4.065Z" transform="translate(-255.443 -29.503)" fill="#e49963"/>
      <path id="Path_31039" data-name="Path 31039" d="M518.863,416.621a20.528,20.528,0,0,0,.964,8.731s1.24,5.648-4.323,5.753-6.926-.42-6.3-3.884,1.827-9.453,1.827-9.453Z" transform="translate(-239.732 8.166)" fill="#e49963"/>
      <path id="Path_31040" data-name="Path 31040" d="M508.74,432.224s.119.073.35.185h10.888a2.774,2.774,0,0,0,.308-.185c.629-2.834-.4-8.166-.4-8.166-6.3,5.773-10.242-.144-10.242-.144C508.621,426.381,508.74,432.224,508.74,432.224Z" transform="translate(-239.79 9.46)" fill="#2b478b"/>
      <path id="Path_31041" data-name="Path 31041" d="M438.99,428.692s10.255-11.383,13.4-17.175l7.626,3.906-17.047,16.009-3.988-.524Z" transform="translate(-252.162 7.261)" fill="#e49963"/>
      <path id="Path_31042" data-name="Path 31042" d="M433.584,434.019h14.034c1.352-1.01,2.614-3.347,4.182-6.486.835-1.673,2.715-2.6,4.645-3.1v9.48h2.91l2.757-10.078c1.813-3.337.142-6.362-1.136-9-1.485,0-5.483,1.014-13.058,9.55a9.924,9.924,0,0,1-7.971,3.718.7.7,0,0,1-.112.06C435.265,430.217,433.958,432.771,433.584,434.019Z" transform="translate(-253.12 7.85)" fill="#2b478b"/>
      <path id="Path_31043" data-name="Path 31043" d="M504.137,199.644s-10.706,26.448-11.02,31.8-1.26,87.532-1.26,87.532.63,3.778-6.612,2.2-9.132-3.148-9.132-3.148,6.928-50.694,5.038-68.326,14.484-46.39,14.484-46.39Z" transform="translate(-245.576 -30.317)" fill="#699dee"/>
      <path id="Path_31044" data-name="Path 31044" d="M458.6,426.252l8.02.245s18.523-20.623,28.914-53.684q.364-1.153.769-2.334c5.685-16.581,17.474-37.393,23.686-56.232.989-3,1.877-5.824,2.674-8.5.255-.856.5-1.7.739-2.524l-6.605-5.013s-19.834,32.116-25.974,62.34C485.495,386.805,464.134,418.4,458.6,426.252Z" transform="translate(-248.682 -12.835)" fill="#233862"/>
      <path id="Path_31045" data-name="Path 31045" d="M508.113,364.65c-.113,14.7.63,48.49,2.544,62.479h7.1c3.927,0,5.886-.057,5.886-.057,4.8-24.324,8.217-44.45,10.7-61.793,2.04-14.232,3.855-26.433,5.249-36.936,1.4-10.57,2.381-19.422,2.73-26.9.053-1.177.094-2.324.117-3.436s.028-2.2.019-3.259l-38.76-3.778C504.194,316.724,508.177,356.108,508.113,364.65Z" transform="translate(-240.683 -14.119)" fill="#2b478b"/>
      <path id="Path_31046" data-name="Path 31046" d="M515.643,425.552c3.927,0,5.886-.057,5.886-.057,4.8-24.324,8.217-44.45,10.7-61.793,2.04-14.232,3.855-26.433,5.249-36.936,1.4-10.57,2.381-19.422,2.73-26.9l-14.222,8.365s9.077,3.2,5.614,27.447S520.464,422.12,515.643,425.552Z" transform="translate(-238.565 -12.542)" fill="#233862"/>
      <path id="Path_31047" data-name="Path 31047" d="M516.084,317.323s2.729,9.865,12.175,8.605S551.138,319,551.138,319s-4.037-12.754-9.055-29.512c-6.078-20.287-13.6-46.44-17.145-62.936a102.068,102.068,0,0,1-1.927-11.246L515.174,200.1s-11.685,26.226-12.315,32.838S516.084,317.323,516.084,317.323Z" transform="translate(-240.836 -30.236)" fill="#699dee"/>
      <path id="Path_31048" data-name="Path 31048" d="M514.445,242.808c.423,10.706,2.941,31.486,25.4,42.61.06.029.12.06.18.086-6.078-20.287-13.6-46.44-17.145-62.936C518.755,228.734,514.216,236.914,514.445,242.808Z" transform="translate(-238.779 -26.252)" fill="#4a75cb"/>
      <g id="Group_42329" data-name="Group 42329">
        <rect id="Rectangle_40291" data-name="Rectangle 40291" width="6.96" height="27.679" transform="translate(140.071 139.801) rotate(-47.561)" fill="#2b478b"/>
        <rect id="Rectangle_40292" data-name="Rectangle 40292" width="19.727" height="152.75" rx="8.245" transform="translate(152.547 159.859) rotate(-47.561)" fill="#c65447"/>
        <g id="Group_42328" data-name="Group 42328" transform="translate(3.973 4.161)" opacity="0.3">
          <g id="Group_42327" data-name="Group 42327">
            <path id="Path_31049" data-name="Path 31049" d="M304.788,190.292a77.7,77.7,0,1,0,3.348-109.827A77.378,77.378,0,0,0,304.788,190.292Z" transform="translate(-283.68 -59.36)" fill="#b3cff9"/>
          </g>
        </g>
        <path id="Path_31050" data-name="Path 31050" d="M301.753,82.446A81.858,81.858,0,1,0,417.4,77.273,81.857,81.857,0,0,0,301.753,82.446Zm114.168,104.39a72.84,72.84,0,1,1-4.6-102.909A72.841,72.841,0,0,1,415.921,186.836Z" transform="translate(-280.306 -55.826)" fill="#c65447"/>
      </g>
      <path id="Path_31051" data-name="Path 31051" d="M527.6,231.953,517.257,200.1c.028.013,13.063,3.879,19.62,7.191,0,0,4.1,5.284,6.635,17.476,0,0,2.68,29.267-3.3,39.973,0,0-18.892,3.778-49.12-6.613V251.2s33.062,1.732,39.831,2.52Z" transform="translate(-242.92 -30.236)" fill="#e49963"/>
      <path id="Path_31052" data-name="Path 31052" d="M513.482,200.1s19.173,1.352,23.791,11.637,6.087,44.5.21,54.577c0,0-8.092,2.3-22.4-.372l-.53-.1s-4.566-11.178-.472-13.382c0,0,12.07.63,10.81-3.359S513.482,200.1,513.482,200.1Z" transform="translate(-239.145 -30.236)" fill="#699dee"/>
      <path id="Path_31053" data-name="Path 31053" d="M496.459,247.047a16.535,16.535,0,0,1-3.2-6.451c-.562-3.259-2.3-5.676-6.851-6.273s-6.5-.663-6.488.619,3.715,10.228,10.237,15.571S496.459,247.047,496.459,247.047Z" transform="translate(-244.901 -24.24)" fill="#e49963"/>
    </g>
    <path id="Path_31054" data-name="Path 31054" d="M24.437,432.47h751.5a.673.673,0,0,0,.671-.67h0a.673.673,0,0,0-.671-.671H24.437a.672.672,0,0,0-.67.671h0A.672.672,0,0,0,24.437,432.47Z" transform="translate(1.443 69.623)" fill="#283250"/>
  </g>
</svg>
