<svg xmlns="http://www.w3.org/2000/svg" xmlns:xlink="http://www.w3.org/1999/xlink" width="400px" height="400px" style="shape-rendering:geometricPrecision; text-rendering:geometricPrecision; image-rendering:optimizeQuality; fill-rule:evenodd; clip-rule:evenodd"><g><path style="opacity:1" fill="#fefefe" d="M -0.5,-0.5 C 132.833,-0.5 266.167,-0.5 399.5,-0.5C 399.5,132.833 399.5,266.167 399.5,399.5C 266.167,399.5 132.833,399.5 -0.5,399.5C -0.5,266.167 -0.5,132.833 -0.5,-0.5 Z"></path></g><g><path style="opacity:1" fill="#709dc7" d="M 298.5,98.5 C 262.833,98.5 227.167,98.5 191.5,98.5C 186.797,98.4372 182.13,98.7705 177.5,99.5C 178.263,98.7321 179.263,98.2321 180.5,98C 220.002,97.1688 259.335,97.3355 298.5,98.5 Z"></path></g><g><path style="opacity:1" fill="#fcfdfd" d="M 289.5,256.5 C 285.952,271.054 277.285,281.388 263.5,287.5C 263.167,287.5 262.833,287.5 262.5,287.5C 259.302,288.787 255.969,289.453 252.5,289.5C 221.329,289.831 190.329,289.498 159.5,288.5C 162.145,284.2 163.979,279.534 165,274.5C 165.333,225.5 165.667,176.5 166,127.5C 167.488,122.517 169.988,118.184 173.5,114.5C 176.689,112.74 180.022,111.24 183.5,110C 218.832,109.5 254.165,109.333 289.5,109.5C 289.5,158.5 289.5,207.5 289.5,256.5 Z"></path></g><g><path style="opacity:1" fill="#3d7ebe" d="M 191.5,98.5 C 223.329,99.4982 255.329,99.8316 287.5,99.5C 287.5,101.167 287.5,102.833 287.5,104.5C 288.5,104.5 289.5,104.5 290.5,104.5C 290.5,102.833 290.5,101.167 290.5,99.5C 293.579,99.2601 296.579,99.5934 299.5,100.5C 300.167,152.332 300.833,203.998 301.5,255.5C 301.258,259.479 300.258,263.146 298.5,266.5C 297.069,265.097 295.902,263.431 295,261.5C 294.892,265.177 294.892,268.843 295,272.5C 293.989,271.663 292.822,271.33 291.5,271.5C 291.909,266.308 291.242,261.308 289.5,256.5C 289.5,207.5 289.5,158.5 289.5,109.5C 254.165,109.333 218.832,109.5 183.5,110C 180.022,111.24 176.689,112.74 173.5,114.5C 172.167,114.5 170.833,114.5 169.5,114.5C 169.5,113.5 169.5,112.5 169.5,111.5C 168.167,111.5 166.833,111.5 165.5,111.5C 165.5,112.5 165.5,113.5 165.5,114.5C 164.178,114.33 163.011,114.663 162,115.5C 161.111,118.279 159.944,120.945 158.5,123.5C 158.167,122.667 157.833,121.833 157.5,121C 158.86,118.73 159.527,116.23 159.5,113.5C 163.446,106.224 169.446,101.557 177.5,99.5C 182.13,98.7705 186.797,98.4372 191.5,98.5 Z"></path></g><g><path style="opacity:1" fill="#4f83b5" d="M 191.5,98.5 C 227.167,98.5 262.833,98.5 298.5,98.5C 300.017,98.5106 301.184,99.1772 302,100.5C 302.832,152.335 302.665,204.002 301.5,255.5C 300.833,203.998 300.167,152.332 299.5,100.5C 296.579,99.5934 293.579,99.2601 290.5,99.5C 290.5,101.167 290.5,102.833 290.5,104.5C 289.5,104.5 288.5,104.5 287.5,104.5C 287.5,102.833 287.5,101.167 287.5,99.5C 255.329,99.8316 223.329,99.4982 191.5,98.5 Z"></path></g><g><path style="opacity:1" fill="#327dc5" d="M 156.5,275.5 C 155.883,275.389 155.383,275.056 155,274.5C 154.5,254.169 154.333,233.836 154.5,213.5C 156.167,213.5 157.833,213.5 159.5,213.5C 159.528,211.418 158.861,209.584 157.5,208C 158.187,196.709 158.854,185.376 159.5,174C 157.959,168.197 157.626,162.363 158.5,156.5C 158.547,155 157.881,154 156.5,153.5C 155.496,168.149 154.496,168.149 153.5,153.5C 153.5,153.167 153.5,152.833 153.5,152.5C 154.329,144.343 154.829,136.01 155,127.5C 155.13,135.259 155.963,142.926 157.5,150.5C 157.833,150.333 158.167,150.167 158.5,150C 158.618,142.592 158.784,135.092 159,127.5C 161.039,123.822 163.372,120.489 166,117.5C 167.156,116.007 167.99,116.174 168.5,118C 167.964,120.24 166.797,122.073 165,123.5C 164.667,172.833 164.333,222.167 164,271.5C 163.5,223.501 163.333,175.501 163.5,127.5C 162.5,127.5 161.5,127.5 160.5,127.5C 161.083,209.093 160.75,239.76 159.5,219.5C 158.5,219.5 157.5,219.5 156.5,219.5C 156.502,238.209 156.502,256.876 156.5,275.5 Z"></path></g><g><path style="opacity:1" fill="#457fb6" d="M 191.5,139.5 C 192.613,141.757 194.279,142.424 196.5,141.5C 199.964,143.208 199.297,143.874 194.5,143.5C 194.575,146.407 195.409,149.073 197,151.5C 197.498,154.817 197.665,158.15 197.5,161.5C 195.396,161.799 193.396,161.466 191.5,160.5C 192.617,159.051 193.284,157.384 193.5,155.5C 192.349,151.563 191.516,147.563 191,143.5C 190.333,151.5 190.333,159.5 191,167.5C 193.642,165.762 196.475,164.429 199.5,163.5C 200.167,158.167 200.833,152.833 201.5,147.5C 203.326,147.08 205.326,147.08 207.5,147.5C 207.343,146.127 207.51,144.793 208,143.5C 208.315,145.586 208.815,147.586 209.5,149.5C 206.833,149.5 204.167,149.5 201.5,149.5C 201.179,155.026 201.512,160.36 202.5,165.5C 207.5,165.5 212.5,165.5 217.5,165.5C 217.5,160.5 217.5,155.5 217.5,150.5C 215.393,149.532 213.059,149.198 210.5,149.5C 211.919,148.549 213.585,148.216 215.5,148.5C 215.5,146.833 215.5,145.167 215.5,143.5C 216.5,143.5 217.5,143.5 218.5,143.5C 218.538,150.041 219.204,150.041 220.5,143.5C 222.401,149.708 223.234,156.041 223,162.5C 221.644,161.62 220.144,161.286 218.5,161.5C 218.34,163.199 218.506,164.866 219,166.5C 220.356,165.62 221.856,165.286 223.5,165.5C 223.5,167.167 223.5,168.833 223.5,170.5C 219.719,169.789 216.719,170.955 214.5,174C 211.776,174.27 209.109,174.77 206.5,175.5C 205.548,173.955 205.215,172.288 205.5,170.5C 208.157,170.838 210.49,170.171 212.5,168.5C 208.555,167.509 204.555,167.176 200.5,167.5C 201.092,170.127 201.425,172.794 201.5,175.5C 200.167,175.5 198.833,175.5 197.5,175.5C 197.5,173.5 197.5,171.5 197.5,169.5C 195.833,169.5 194.167,169.5 192.5,169.5C 193.167,171.833 193.833,174.167 194.5,176.5C 204.416,176.819 214.25,176.486 224,175.5C 224.168,164.818 224.668,154.151 225.5,143.5C 225.847,154.532 226.847,165.198 228.5,175.5C 227.571,176.315 226.571,177.148 225.5,178C 214.402,178.954 203.402,178.62 192.5,177C 191.299,176.097 190.465,174.931 190,173.5C 189.333,162.5 189.333,151.5 190,140.5C 190.383,139.944 190.883,139.611 191.5,139.5 Z"></path></g><g><path style="opacity:1" fill="#3a7dc0" d="M 228.5,175.5 C 226.847,165.198 225.847,154.532 225.5,143.5C 224.668,154.151 224.168,164.818 224,175.5C 214.25,176.486 204.416,176.819 194.5,176.5C 193.833,174.167 193.167,171.833 192.5,169.5C 194.167,169.5 195.833,169.5 197.5,169.5C 197.5,171.5 197.5,173.5 197.5,175.5C 198.833,175.5 200.167,175.5 201.5,175.5C 201.425,172.794 201.092,170.127 200.5,167.5C 204.555,167.176 208.555,167.509 212.5,168.5C 210.49,170.171 208.157,170.838 205.5,170.5C 205.215,172.288 205.548,173.955 206.5,175.5C 209.109,174.77 211.776,174.27 214.5,174C 216.719,170.955 219.719,169.789 223.5,170.5C 223.5,168.833 223.5,167.167 223.5,165.5C 221.856,165.286 220.356,165.62 219,166.5C 218.506,164.866 218.34,163.199 218.5,161.5C 220.144,161.286 221.644,161.62 223,162.5C 223.234,156.041 222.401,149.708 220.5,143.5C 219.204,150.041 218.538,150.041 218.5,143.5C 217.5,143.5 216.5,143.5 215.5,143.5C 215.5,145.167 215.5,146.833 215.5,148.5C 213.585,148.216 211.919,148.549 210.5,149.5C 210.167,149.5 209.833,149.5 209.5,149.5C 208.815,147.586 208.315,145.586 208,143.5C 207.51,144.793 207.343,146.127 207.5,147.5C 205.326,147.08 203.326,147.08 201.5,147.5C 200.833,152.833 200.167,158.167 199.5,163.5C 196.475,164.429 193.642,165.762 191,167.5C 190.333,159.5 190.333,151.5 191,143.5C 191.516,147.563 192.349,151.563 193.5,155.5C 193.284,157.384 192.617,159.051 191.5,160.5C 193.396,161.466 195.396,161.799 197.5,161.5C 197.665,158.15 197.498,154.817 197,151.5C 195.409,149.073 194.575,146.407 194.5,143.5C 199.297,143.874 199.964,143.208 196.5,141.5C 194.279,142.424 192.613,141.757 191.5,139.5C 191.611,138.883 191.944,138.383 192.5,138C 198,137.833 203.5,137.667 209,137.5C 227.167,133 234,139.833 229.5,158C 229.479,163.911 229.146,169.745 228.5,175.5 Z"></path></g><g><path style="opacity:1" fill="#fafdfb" d="M 217.5,150.5 C 217.5,155.5 217.5,160.5 217.5,165.5C 212.5,165.5 207.5,165.5 202.5,165.5C 202.5,160.5 202.5,155.5 202.5,150.5C 207.5,150.5 212.5,150.5 217.5,150.5 Z"></path></g><g><path style="opacity:1" fill="#a8c9e8" d="M 209.5,149.5 C 209.833,149.5 210.167,149.5 210.5,149.5C 213.059,149.198 215.393,149.532 217.5,150.5C 212.5,150.5 207.5,150.5 202.5,150.5C 202.5,155.5 202.5,160.5 202.5,165.5C 201.512,160.36 201.179,155.026 201.5,149.5C 204.167,149.5 206.833,149.5 209.5,149.5 Z"></path></g><g><path style="opacity:1" fill="#e4f5fc" d="M 189.5,200.5 C 213.836,200.333 238.169,200.5 262.5,201C 266.057,200.896 268.057,202.563 268.5,206C 268.089,208.903 267.089,211.569 265.5,214C 239.835,214.5 214.169,214.667 188.5,214.5C 186.865,209.61 187.198,204.944 189.5,200.5 Z"></path></g><g><path style="opacity:1" fill="#387cbe" d="M 261.5,202.5 C 262.013,204.872 262.346,207.205 262.5,209.5C 262.182,210.647 261.516,211.481 260.5,212C 237.836,212.5 215.169,212.667 192.5,212.5C 191.833,212.5 191.5,212.167 191.5,211.5C 212.844,211.833 234.177,211.5 255.5,210.5C 260.768,208.498 260.768,206.665 255.5,205C 233.996,204.832 212.663,204.332 191.5,203.5C 191.611,202.883 191.944,202.383 192.5,202C 215.67,201.17 238.67,201.337 261.5,202.5 Z"></path></g><g><path style="opacity:1" fill="#447ab0" d="M 110.5,201.5 C 124.833,201.5 139.167,201.5 153.5,201.5C 153.5,203.167 153.5,204.833 153.5,206.5C 152.5,206.5 151.5,206.5 150.5,206.5C 150.5,205.167 150.5,203.833 150.5,202.5C 137.483,202.168 124.483,202.501 111.5,203.5C 154.146,204.832 154.146,205.499 111.5,205.5C 111.5,206.833 111.5,208.167 111.5,209.5C 154.146,209.501 154.146,210.168 111.5,211.5C 125.2,212.815 138.866,212.815 152.5,211.5C 153.522,211.855 154.189,212.522 154.5,213.5C 154.333,233.836 154.5,254.169 155,274.5C 155.383,275.056 155.883,275.389 156.5,275.5C 156.762,276.978 156.429,278.311 155.5,279.5C 154.28,278.289 153.113,278.289 152,279.5C 150.991,281.025 150.491,282.692 150.5,284.5C 147.962,285.043 145.628,286.043 143.5,287.5C 148.04,283.788 151.207,279.122 153,273.5C 153.5,253.836 153.667,234.169 153.5,214.5C 139.01,213.504 124.343,213.171 109.5,213.5C 110.36,209.566 110.693,205.566 110.5,201.5 Z"></path></g><g><path style="opacity:1" fill="#3f7ab4" d="M 191.5,203.5 C 212.663,204.332 233.996,204.832 255.5,205C 260.768,206.665 260.768,208.498 255.5,210.5C 234.177,211.5 212.844,211.833 191.5,211.5C 188.833,208.833 188.833,206.167 191.5,203.5 Z"></path></g><g><path style="opacity:1" fill="#2f7fc7" d="M 191.5,206.5 C 212.844,206.167 234.177,206.5 255.5,207.5C 244.833,207.833 234.167,208.167 223.5,208.5C 212.478,208.499 201.812,207.832 191.5,206.5 Z"></path></g><g><path style="opacity:1" fill="#467db2" d="M 261.5,202.5 C 266.151,203.174 267.651,205.841 266,210.5C 265.167,211.333 264.333,212.167 263.5,213C 239.663,213.83 215.996,213.663 192.5,212.5C 215.169,212.667 237.836,212.5 260.5,212C 261.516,211.481 262.182,210.647 262.5,209.5C 262.346,207.205 262.013,204.872 261.5,202.5 Z"></path></g><g><path style="opacity:1" fill="#fdfefd" d="M 153.5,214.5 C 153.667,234.169 153.5,253.836 153,273.5C 151.207,279.122 148.04,283.788 143.5,287.5C 138.304,289.087 132.97,289.754 127.5,289.5C 117.725,287.392 112.059,281.392 110.5,271.5C 110.5,252.5 110.5,233.5 110.5,214.5C 124.833,214.5 139.167,214.5 153.5,214.5 Z"></path></g><g><path style="opacity:1" fill="#3d7dbb" d="M 153.5,153.5 C 154.496,168.149 155.496,168.149 156.5,153.5C 157.881,154 158.547,155 158.5,156.5C 157.626,162.363 157.959,168.197 159.5,174C 158.854,185.376 158.187,196.709 157.5,208C 158.861,209.584 159.528,211.418 159.5,213.5C 157.833,213.5 156.167,213.5 154.5,213.5C 154.189,212.522 153.522,211.855 152.5,211.5C 138.866,212.815 125.2,212.815 111.5,211.5C 154.146,210.168 154.146,209.501 111.5,209.5C 111.5,208.167 111.5,206.833 111.5,205.5C 154.146,205.499 154.146,204.832 111.5,203.5C 124.483,202.501 137.483,202.168 150.5,202.5C 150.5,203.833 150.5,205.167 150.5,206.5C 151.5,206.5 152.5,206.5 153.5,206.5C 153.5,204.833 153.5,203.167 153.5,201.5C 153.5,189.5 153.5,177.5 153.5,165.5C 144.827,165.334 136.16,165.5 127.5,166C 118.36,168.474 112.526,174.307 110,183.5C 109.181,189.681 109.347,195.681 110.5,201.5C 110.693,205.566 110.36,209.566 109.5,213.5C 109.17,233.007 109.503,252.341 110.5,271.5C 112.059,281.392 117.725,287.392 127.5,289.5C 126.652,291.093 125.319,292.26 123.5,293C 119.465,293.798 115.465,294.631 111.5,295.5C 103.951,290.101 99.4511,282.768 98,273.5C 97.0448,241.466 97.3782,209.466 99,177.5C 103.66,165.507 112.16,157.673 124.5,154C 134.161,153.5 143.828,153.334 153.5,153.5 Z"></path></g><g><path style="opacity:1" fill="#f9fcfc" d="M 153.5,201.5 C 139.167,201.5 124.833,201.5 110.5,201.5C 109.347,195.681 109.181,189.681 110,183.5C 112.526,174.307 118.36,168.474 127.5,166C 136.16,165.5 144.827,165.334 153.5,165.5C 153.5,177.5 153.5,189.5 153.5,201.5 Z"></path></g><g><path style="opacity:1" fill="#a8c8e3" d="M 109.5,213.5 C 124.343,213.171 139.01,213.504 153.5,214.5C 139.167,214.5 124.833,214.5 110.5,214.5C 110.5,233.5 110.5,252.5 110.5,271.5C 109.503,252.341 109.17,233.007 109.5,213.5 Z"></path></g><g><path style="opacity:1" fill="#3e7bb4" d="M 192.5,248.5 C 216.189,248.782 239.855,248.449 263.5,247.5C 263.5,244.833 263.5,242.167 263.5,239.5C 242.197,238.367 220.864,238.2 199.5,239C 218.176,239.167 236.842,239.667 255.5,240.5C 170.215,242.827 170.215,244.493 255.5,245.5C 234.004,246.167 212.671,246.833 191.5,247.5C 188.61,244.085 188.944,240.918 192.5,238C 216.563,237.03 240.563,237.363 264.5,239C 267.425,242.696 267.092,246.029 263.5,249C 239.663,249.83 215.996,249.663 192.5,248.5 Z"></path></g><g><path style="opacity:1" fill="#357cc1" d="M 192.5,248.5 C 191.833,248.5 191.5,248.167 191.5,247.5C 212.671,246.833 234.004,246.167 255.5,245.5C 170.215,244.493 170.215,242.827 255.5,240.5C 236.842,239.667 218.176,239.167 199.5,239C 220.864,238.2 242.197,238.367 263.5,239.5C 263.5,242.167 263.5,244.833 263.5,247.5C 239.855,248.449 216.189,248.782 192.5,248.5 Z"></path></g><g><path style="opacity:1" fill="#457eb4" d="M 289.5,256.5 C 291.242,261.308 291.909,266.308 291.5,271.5C 292.822,271.33 293.989,271.663 295,272.5C 294.892,268.843 294.892,265.177 295,261.5C 295.902,263.431 297.069,265.097 298.5,266.5C 297.035,272.77 294.035,278.104 289.5,282.5C 288.871,280.535 288.204,278.535 287.5,276.5C 287.39,274.626 288.056,273.126 289.5,272C 288.333,271.5 287.5,270.667 287,269.5C 281.716,276.456 275.549,282.29 268.5,287C 266.866,287.494 265.199,287.66 263.5,287.5C 277.285,281.388 285.952,271.054 289.5,256.5 Z"></path></g><g><path style="opacity:1" fill="#417db6" d="M 289.5,282.5 C 288.386,283.885 287.386,285.385 286.5,287C 283.935,289.08 281.268,290.913 278.5,292.5C 278.5,291.5 278.5,290.5 278.5,289.5C 274.473,289.719 273.806,288.552 276.5,286C 277.448,285.517 278.448,285.351 279.5,285.5C 279.5,286.5 279.5,287.5 279.5,288.5C 280.5,288.5 281.5,288.5 282.5,288.5C 282.617,286.516 281.95,284.85 280.5,283.5C 280.709,282.914 281.043,282.414 281.5,282C 284.119,282.083 286.786,282.25 289.5,282.5 Z"></path></g><g><path style="opacity:1" fill="#417db6" d="M 173.5,114.5 C 169.988,118.184 167.488,122.517 166,127.5C 165.667,176.5 165.333,225.5 165,274.5C 163.979,279.534 162.145,284.2 159.5,288.5C 158.957,288.56 158.624,288.893 158.5,289.5C 189.997,290.83 221.331,290.83 252.5,289.5C 255.969,289.453 259.302,288.787 262.5,287.5C 262.5,288.5 262.5,289.5 262.5,290.5C 260.143,290.337 257.81,290.503 255.5,291C 252.865,293.046 249.865,294.213 246.5,294.5C 217.51,293.857 188.51,293.19 159.5,292.5C 153.386,291.987 147.386,290.987 141.5,289.5C 140,289.453 139,290.119 138.5,291.5C 145.3,293.727 152.3,295.06 159.5,295.5C 196.924,296.72 234.257,296.72 271.5,295.5C 271.215,293.712 271.548,292.045 272.5,290.5C 273.386,291.325 273.719,292.325 273.5,293.5C 274.833,293.5 276.167,293.5 277.5,293.5C 270.828,297.784 263.495,300.617 255.5,302C 211.833,302.667 168.167,302.667 124.5,302C 122.509,301.626 120.842,300.793 119.5,299.5C 163.148,300.812 206.815,300.812 250.5,299.5C 213.628,298.575 176.628,298.241 139.5,298.5C 139.625,295.107 137.958,293.774 134.5,294.5C 133.167,294.667 131.833,294.833 130.5,295C 131.833,296.333 131.833,297.667 130.5,299C 128.527,299.495 126.527,299.662 124.5,299.5C 124.5,298.5 124.5,297.5 124.5,296.5C 122.076,296.192 119.743,296.526 117.5,297.5C 117.863,298.183 118.196,298.85 118.5,299.5C 115.996,298.416 113.663,297.083 111.5,295.5C 115.465,294.631 119.465,293.798 123.5,293C 125.319,292.26 126.652,291.093 127.5,289.5C 132.97,289.754 138.304,289.087 143.5,287.5C 145.628,286.043 147.962,285.043 150.5,284.5C 150.491,282.692 150.991,281.025 152,279.5C 153.113,278.289 154.28,278.289 155.5,279.5C 156.429,278.311 156.762,276.978 156.5,275.5C 156.502,256.876 156.502,238.209 156.5,219.5C 157.5,219.5 158.5,219.5 159.5,219.5C 160.75,239.76 161.083,209.093 160.5,127.5C 161.5,127.5 162.5,127.5 163.5,127.5C 163.333,175.501 163.5,223.501 164,271.5C 164.333,222.167 164.667,172.833 165,123.5C 166.797,122.073 167.964,120.24 168.5,118C 167.99,116.174 167.156,116.007 166,117.5C 163.372,120.489 161.039,123.822 159,127.5C 158.784,135.092 158.618,142.592 158.5,150C 158.167,150.167 157.833,150.333 157.5,150.5C 155.963,142.926 155.13,135.259 155,127.5C 154.829,136.01 154.329,144.343 153.5,152.5C 153.334,143.161 153.5,133.827 154,124.5C 154.81,120.213 156.643,116.546 159.5,113.5C 159.527,116.23 158.86,118.73 157.5,121C 157.833,121.833 158.167,122.667 158.5,123.5C 159.944,120.945 161.111,118.279 162,115.5C 163.011,114.663 164.178,114.33 165.5,114.5C 165.5,113.5 165.5,112.5 165.5,111.5C 166.833,111.5 168.167,111.5 169.5,111.5C 169.5,112.5 169.5,113.5 169.5,114.5C 170.833,114.5 172.167,114.5 173.5,114.5 Z"></path></g><g><path style="opacity:1" fill="#95c2ea" d="M 159.5,288.5 C 190.329,289.498 221.329,289.831 252.5,289.5C 221.331,290.83 189.997,290.83 158.5,289.5C 158.624,288.893 158.957,288.56 159.5,288.5 Z"></path></g><g><path style="opacity:1" fill="#377bbe" d="M 289.5,282.5 C 286.786,282.25 284.119,282.083 281.5,282C 281.043,282.414 280.709,282.914 280.5,283.5C 281.95,284.85 282.617,286.516 282.5,288.5C 281.5,288.5 280.5,288.5 279.5,288.5C 279.5,287.5 279.5,286.5 279.5,285.5C 278.448,285.351 277.448,285.517 276.5,286C 273.806,288.552 274.473,289.719 278.5,289.5C 278.5,290.5 278.5,291.5 278.5,292.5C 278.5,293.167 278.167,293.5 277.5,293.5C 276.167,293.5 274.833,293.5 273.5,293.5C 273.719,292.325 273.386,291.325 272.5,290.5C 271.548,292.045 271.215,293.712 271.5,295.5C 234.257,296.72 196.924,296.72 159.5,295.5C 152.3,295.06 145.3,293.727 138.5,291.5C 139,290.119 140,289.453 141.5,289.5C 147.386,290.987 153.386,291.987 159.5,292.5C 188.51,293.19 217.51,293.857 246.5,294.5C 249.865,294.213 252.865,293.046 255.5,291C 257.81,290.503 260.143,290.337 262.5,290.5C 262.5,289.5 262.5,288.5 262.5,287.5C 262.833,287.5 263.167,287.5 263.5,287.5C 265.199,287.66 266.866,287.494 268.5,287C 275.549,282.29 281.716,276.456 287,269.5C 287.5,270.667 288.333,271.5 289.5,272C 288.056,273.126 287.39,274.626 287.5,276.5C 288.204,278.535 288.871,280.535 289.5,282.5 Z"></path></g><g><path style="opacity:1" fill="#347ec1" d="M 119.5,299.5 C 119.167,299.5 118.833,299.5 118.5,299.5C 118.196,298.85 117.863,298.183 117.5,297.5C 119.743,296.526 122.076,296.192 124.5,296.5C 124.5,297.5 124.5,298.5 124.5,299.5C 126.527,299.662 128.527,299.495 130.5,299C 131.833,297.667 131.833,296.333 130.5,295C 131.833,294.833 133.167,294.667 134.5,294.5C 137.958,293.774 139.625,295.107 139.5,298.5C 176.628,298.241 213.628,298.575 250.5,299.5C 206.815,300.812 163.148,300.812 119.5,299.5 Z"></path></g></svg>