<svg xmlns="http://www.w3.org/2000/svg" xmlns:xlink="http://www.w3.org/1999/xlink" width="826px" height="826px" style="shape-rendering:geometricPrecision; text-rendering:geometricPrecision; image-rendering:optimizeQuality; fill-rule:evenodd; clip-rule:evenodd"><g><path style="opacity:0.992" fill="#e74042" d="M 48.5,-0.5 C 249.5,-0.5 450.5,-0.5 651.5,-0.5C 652.023,1.70792 653.356,3.20792 655.5,4C 758.989,33.8308 815.655,102.331 825.5,209.5C 825.5,347.5 825.5,485.5 825.5,623.5C 816.174,708.959 772.841,770.126 695.5,807C 671.658,816.961 646.991,823.127 621.5,825.5C 583.5,825.5 545.5,825.5 507.5,825.5C 461.492,821.32 437.325,795.986 435,749.5C 435.158,711.448 434.324,673.614 432.5,636C 426.414,633.448 420.081,631.948 413.5,631.5C 356.855,632.31 300.188,632.31 243.5,631.5C 197.988,631.44 152.488,632.107 107,633.5C 89.6286,633.476 72.462,631.642 55.5,628C 32.0541,621.458 13.3874,608.291 -0.5,588.5C -0.5,408.5 -0.5,228.5 -0.5,48.5C 11.5,27.8333 27.8333,11.5 48.5,-0.5 Z M 76.5,50.5 C 256.167,50.3333 435.834,50.5 615.5,51C 685.729,57.592 734.896,93.092 763,157.5C 786.104,227.235 772.27,288.402 721.5,341C 693.867,365.644 661.533,380.31 624.5,385C 581.172,386.778 537.839,388.111 494.5,389C 463.39,394.467 444.557,412.633 438,443.5C 437.002,450.467 436.336,457.467 436,464.5C 435.833,501.171 435.333,537.838 434.5,574.5C 430.889,577.138 426.889,578.971 422.5,580C 311.325,580.178 200.158,580.678 89,581.5C 79.291,581.493 70.1243,579.326 61.5,575C 55.5136,569.862 52.0136,563.362 51,555.5C 50.3333,395.5 50.3333,235.5 51,75.5C 53.4691,60.863 61.9691,52.5296 76.5,50.5 Z M 599.5,163.5 C 624.217,162.774 642.717,173.107 655,194.5C 666.996,222.846 660.496,246.013 635.5,264C 605.321,279.3 580.155,273.467 560,246.5C 546.184,217.6 551.684,193.1 576.5,173C 583.747,168.536 591.414,165.37 599.5,163.5 Z M 772.5,362.5 C 773.53,414.488 774.196,466.488 774.5,518.5C 774.466,556.518 773.633,594.518 772,632.5C 765.316,678.709 743.149,715.543 705.5,743C 681.587,760.086 654.92,770.086 625.5,773C 586.512,774.503 547.512,774.837 508.5,774C 495.787,772.287 488.287,765.12 486,752.5C 485.333,655.167 485.333,557.833 486,460.5C 488.548,446.963 496.715,439.463 510.5,438C 544.502,437.8 578.502,437.8 612.5,438C 676.377,434.556 729.71,409.389 772.5,362.5 Z"></path></g><g><path style="opacity:0.994" fill="#f9bc3b" d="M 593.5,112.5 C 647.072,109.687 684.572,132.687 706,181.5C 719.488,222.727 711.988,259.56 683.5,292C 648.731,323.421 609.064,331.421 564.5,316C 528.577,300.06 507.743,272.56 502,233.5C 497.283,188.102 513.783,152.602 551.5,127C 564.737,119.528 578.737,114.694 593.5,112.5 Z M 599.5,163.5 C 591.414,165.37 583.747,168.536 576.5,173C 551.684,193.1 546.184,217.6 560,246.5C 580.155,273.467 605.321,279.3 635.5,264C 660.496,246.013 666.996,222.846 655,194.5C 642.717,173.107 624.217,162.774 599.5,163.5 Z"></path></g><g><path style="opacity:0.992" fill="#e84749" d="M 173.5,143.5 C 207.665,144.767 241.831,144.767 276,143.5C 290.531,143.409 305.031,143.909 319.5,145C 330.577,147.41 336.743,154.243 338,165.5C 340.508,181.305 334.008,190.805 318.5,194C 267.5,194.667 216.5,194.667 165.5,194C 148.625,190.782 141.791,180.615 145,163.5C 146.619,154.546 151.786,148.713 160.5,146C 164.965,145.126 169.298,144.293 173.5,143.5 Z"></path></g><g><path style="opacity:0.99" fill="#e84749" d="M 167.5,240.5 C 202.859,240.062 238.192,240.562 273.5,242C 285.441,245.69 291.108,253.857 290.5,266.5C 290.38,281.121 283.046,289.288 268.5,291C 232.786,291.974 197.12,291.64 161.5,290C 152.219,287.719 146.719,281.886 145,272.5C 142.013,254.068 149.513,243.401 167.5,240.5 Z"></path></g></svg>